<svg width="17" height="23" viewBox="0 0 17 23" fill="none" xmlns="http://www.w3.org/2000/svg">
<path d="M2.03311 15.7167C1.66644 15.0834 1.39144 14.4334 1.20811 13.7667C1.02477 13.1 0.933105 12.4167 0.933105 11.7167C0.933105 9.48335 1.70811 7.58335 3.25811 6.01669C4.80811 4.45002 6.69977 3.66669 8.93311 3.66669H9.10811L7.50811 2.06669L8.90811 0.666687L12.9081 4.66669L8.90811 8.66669L7.50811 7.26669L9.10811 5.66669H8.93311C7.26644 5.66669 5.84977 6.25419 4.68311 7.42919C3.51644 8.60419 2.93311 10.0334 2.93311 11.7167C2.93311 12.15 2.98311 12.575 3.08311 12.9917C3.18311 13.4084 3.33311 13.8167 3.53311 14.2167L2.03311 15.7167ZM8.95811 22.6667L4.95811 18.6667L8.95811 14.6667L10.3581 16.0667L8.75811 17.6667H8.93311C10.5998 17.6667 12.0164 17.0792 13.1831 15.9042C14.3498 14.7292 14.9331 13.3 14.9331 11.6167C14.9331 11.1834 14.8831 10.7584 14.7831 10.3417C14.6831 9.92502 14.5331 9.51669 14.3331 9.11669L15.8331 7.61669C16.1998 8.25002 16.4748 8.90002 16.6581 9.56669C16.8414 10.2334 16.9331 10.9167 16.9331 11.6167C16.9331 13.85 16.1581 15.75 14.6081 17.3167C13.0581 18.8834 11.1664 19.6667 8.93311 19.6667H8.75811L10.3581 21.2667L8.95811 22.6667Z" fill="#6670B8"/>
</svg>
