<svg id="Group_2" data-name="Group 2" xmlns="http://www.w3.org/2000/svg" xmlns:xlink="http://www.w3.org/1999/xlink" width="268.616" height="60.935" viewBox="0 0 268.616 60.935">
  <defs>
    <clipPath id="clip-path">
      <rect id="Rectangle_1" data-name="Rectangle 1" width="268.616" height="60.935" fill="none"/>
    </clipPath>
  </defs>
  <g id="Group_1" data-name="Group 1" clip-path="url(#clip-path)">
    <path id="Path_1" data-name="Path 1" d="M565.186,57.811c.082-1.032-.173-1.427-1.332-1.4-3.752.076-7.506.009-11.26,0-2.655,0-2.655,0-2.655,2.66,0,2.956,0,3,2.9,2.94,1.061-.023,1.4.226,1.388,1.351-.055,7.046-.009,14.094-.047,21.14-.005.945.2,1.266,1.2,1.258,1.261-.009,2.556-.312,3.8.181H560.3c.648-.327.56-.921.559-1.5q-.007-9.666,0-19.333c0-3.047,0-3.107,3.075-3.042,1.11.023,1.341-.352,1.259-1.339a18.217,18.217,0,0,1,0-2.918" transform="translate(-396.706 -40.69)" fill="#2d2b28"/>
    <path id="Path_2" data-name="Path 2" d="M802.37,56.346q-4.031.079-8.064,0c-.976-.019-1.231.383-1.312,1.284-.176,1.977-.764,3.889-.931,5.883-.166,1.976-.759,3.906-.734,5.915.008.648-.061,1.3-.1,1.944a13.678,13.678,0,0,1-.721-4,45.451,45.451,0,0,0-.464-4.795c-.262-1.838-.692-3.7-.931-5.576-.077-.6-.371-.642-.827-.641-2.874.006-5.748.019-8.621-.01-.655-.007-.866.174-.865.855q.033,13.77,0,27.541c0,.719.181.973.924.947,1.481-.054,2.969-.077,4.448.007.908.051,1.057-.284,1.048-1.1-.042-3.755.016-7.511-.033-11.266a38.7,38.7,0,0,0-.216-6.075,7.244,7.244,0,0,1,.176-3.515c.491.728.255,1.338.355,1.891,1.1,6.07,2.19,12.14,3.038,18.251.186,1.342.666,2.148,2.214,1.813a6.643,6.643,0,0,1,1.664-.015c.542.024.794-.116.888-.741.614-4.085,1.281-8.162,1.942-12.24.549-3.39,1.113-6.777,1.67-10.165l.247-.074c0,.554,0,1.109,0,1.663-.021,6.723-.008,13.446-.094,20.168-.015,1.2.34,1.5,1.464,1.407a32.775,32.775,0,0,1,3.891-.011c.772.031,1.036-.193,1.034-1q-.041-13.631,0-27.263c0-.869-.251-1.1-1.1-1.079" transform="translate(-561.802 -40.645)" fill="#2d2b28"/>
    <path id="Path_3" data-name="Path 3" d="M212.241,70.169a4.982,4.982,0,0,0,3.005-4.083,20.537,20.537,0,0,0-.015-5.235,4.2,4.2,0,0,0-1.459-2.9,9.059,9.059,0,0,0-5.1-1.539c-2.87-.072-5.743-.008-8.613-.055-.772-.013-1.025.189-1.023,1q.043,13.69.008,27.381c0,.7.154.983.918.968,3.148-.06,6.3.043,9.445-.114,2.772-.138,5.964-1.754,6.344-5.15.143-1.28.242-2.55.286-3.831.1-2.87-.6-5.281-3.8-6.437m-5.98-8.765c1.426-.1,2.64.484,2.71,1.476a24.2,24.2,0,0,1,0,3.325c-.074,1.1-1.994,2.213-3.025,1.875-.483-.158-.3-.508-.311-.781-.027-.878-.01-1.757-.01-2.636a9.433,9.433,0,0,1,.026-1.8c.1-.5-.589-1.373.608-1.46m.186,19.472c-.506.143-.87.014-.835-.683.055-1.11.015-2.224.015-3.337a21.383,21.383,0,0,1,.021-2.362c.062-.56-.446-1.452.407-1.628a2.489,2.489,0,0,1,2.918,1.038,4.182,4.182,0,0,1,.266,2.151c.019.509-.016,1.02.007,1.529.121,2.631-.082,2.524-2.8,3.291" transform="translate(-143.581 -40.652)" fill="#2d2b28"/>
    <path id="Path_4" data-name="Path 4" d="M286.584,71.022c0-4.542-.025-9.085.022-13.627.009-.871-.23-1.107-1.082-1.065-1.479.073-2.967.07-4.447,0-.884-.041-1.2.184-1.171,1.133.073,2.315.023,4.635.024,6.952,0,2.853,0,2.816-2.818,2.813-.852,0-1.108-.222-1.092-1.086.053-2.919.027-5.84.013-8.76,0-.448.248-1.062-.647-1.042-1.806.038-3.614.015-5.421.008-.547,0-.572.234-.57.75.033,8.9.025,17.8.025,26.7a2.326,2.326,0,0,1-.031.963c-.448.877.143.89.7.9,1.529.019,3.061-.054,4.586.028,1.034.055,1.434-.173,1.4-1.326-.094-2.871-.031-5.747-.031-8.62,0-2.677,0-2.611,2.657-2.691,1.1-.034,1.274.333,1.256,1.319-.059,3.429,0,6.86-.038,10.29-.008.766.182,1.066.994,1.026a27.322,27.322,0,0,1,3.889.009c1.387.131,1.869-.224,1.828-1.738-.119-4.307-.042-8.62-.042-12.931" transform="translate(-194.213 -40.631)" fill="#2d2b28"/>
    <path id="Path_5" data-name="Path 5" d="M431.024,74.87c-.04-.433.353-.757.026-1.288-.838-1.358-1.516-2.815-3.667-3.239,1.743-.828,2.9-1.7,3.332-3.226a12.859,12.859,0,0,0,.271-5.464c-.459-2.991-1.6-4.493-4.744-4.988-3.73-.586-7.472-.12-11.2-.3-.617-.03-.785.191-.784.79q.023,13.838,0,27.675c0,.649.165.894.849.873,1.482-.045,2.968-.068,4.447.011.952.051,1.252-.2,1.234-1.2-.066-3.522-.031-7.046-.017-10.569,0-.344-.186-.8.2-1.016.883-.5,3.188.592,3.312,1.638a18.57,18.57,0,0,1,.324,2.714c-.062,2.362,0,4.728,0,7.092,0,.879.311,1.362,1.294,1.333,1.621-.048,3.244,0,4.865-.026.281,0,.862.234.712-.439-.764-3.433-.121-6.921-.443-10.366m-6.5-8.908a2.264,2.264,0,0,1-1.453,1.911c-1.692.63-2.312.306-2.318-1.454,0-.554,0-1.108,0-1.662a17.836,17.836,0,0,0-.017-2.214c-.137-1.092.429-1.217,1.289-1.135,2.016.189,3.06,2.068,2.5,4.555" transform="translate(-298.827 -40.654)" fill="#2d2b28"/>
    <path id="Path_6" data-name="Path 6" d="M660.4,81.849q-.01-3.408-.008-6.816a4.669,4.669,0,0,0-1.849-3.921c-.47-.364-1.136-.393-1.5-.942a5.248,5.248,0,0,0,3.128-3.837,15.918,15.918,0,0,0,.011-5.2,4.566,4.566,0,0,0-.769-2.312c-1.451-1.855-3.478-2.313-5.578-2.406-3.1-.138-6.21-.031-9.315-.062-.672-.007-.974.114-.971.9q.042,13.771,0,27.543c0,.782.3.918.976.9,1.482-.04,2.97-.074,4.448.013.943.055,1.142-.275,1.131-1.155-.047-3.57-.026-7.141-.008-10.711,0-.325-.229-.777.236-.973,1.081-.455,3.1.7,3.339,1.944a15.013,15.013,0,0,1,.224,2.473q.074,3.615.071,7.231c0,.8.251,1.195,1.12,1.178,1.9-.037,3.792-.011,5.8-.011a8.354,8.354,0,0,1-.494-3.825m-7.893-14.055c-1.96.772-2.42.446-2.422-1.673V64.734a16.272,16.272,0,0,0-.017-2.218c-.151-1.105.419-1.2,1.276-1.124,1.886.159,2.369.665,2.353,2.552-.006.694-.043,1.392.017,2.081a1.624,1.624,0,0,1-1.207,1.77" transform="translate(-464.232 -40.64)" fill="#2d2b28"/>
    <path id="Path_7" data-name="Path 7" d="M357.226,82.6c-1.186-1.588-.855-3.57-1.273-5.343-1.081-4.6-1.755-9.292-2.592-13.947-.37-2.062-.789-4.118-1.081-6.191-.09-.643-.322-.737-.86-.733-2.5.016-5,.012-7.5,0-.5,0-.69.06-.86.689a49.122,49.122,0,0,0-1.07,5.384c-.663,4.3-1.662,8.54-2.271,12.854-.425,3.007-1.161,5.971-1.755,8.954-.181.909-.1,1.538,1.125,1.463a35.83,35.83,0,0,1,4.3,0c.815.048,1.194-.263,1.306-.994.063-.409.045-.83.067-1.246.156-3.058.156-3.058,3.154-3.065.278,0,.556.008.833,0,.586-.022.889.018,1.068.817.281,1.257.172,2.539.482,3.787.129.521.243.689.745.685,2.122-.014,4.244-.006,6.349-.006.131-1.129-.836-2.067-.17-3.107m-8.563-7.527c-2.225.374-2.9-.434-2.493-2.674.467-2.584.8-5.2,1.068-7.808a17.311,17.311,0,0,1,.426-2.3c.461,4.178.877,8.2,1.383,12.213.062.5-.011.5-.384.567" transform="translate(-243.742 -40.676)" fill="#2d2b28"/>
    <path id="Path_8" data-name="Path 8" d="M501.939,82.152c-.711-3.371-1.358-6.756-1.969-10.147-.875-4.855-1.678-9.724-2.579-14.574-.077-.416-.019-1.178-1.011-1.137-2.453.1-4.914.042-7.371.027-.685,0-.952.258-1.036.968-.176,1.477-.424,2.951-.741,4.405-.4,1.823-.915,3.656-1.239,5.452-.273,1.513-.482,3.106-.731,4.662-.309,1.927-.892,3.83-1.15,5.724-.363,2.665-1.032,5.273-1.238,8.113,1.983,0,3.972-.023,5.96.013.691.013.922-.262.828-.9-.152-1.022.355-1.962.326-2.994-.025-.893.383-1.642,1.6-1.427a8.11,8.11,0,0,0,2.22.008c.962-.1,1.145.351,1.185,1.2.053,1.13.279,2.252.423,3.378.058.45.171.744.753.732,1.9-.039,3.8-.024,5.7-.009.5,0,.744-.216.554-.656a13.9,13.9,0,0,1-.487-2.839m-9.969-7.128c-.714-.006-1.01-.193-.913-.916.479-3.554.95-7.109,1.452-10.872.93,1.09.46,2.22.674,3.217a52.863,52.863,0,0,1,.657,6.1c.017.183-.02.371,0,.554.2,1.974.2,1.937-1.869,1.921" transform="translate(-348.327 -40.607)" fill="#2d2b28"/>
    <path id="Path_9" data-name="Path 9" d="M729.8,80.015c-2.178.047-4.357-.012-6.535.033-.738.015-.952-.225-.929-.946.049-1.529.056-3.061,0-4.589-.031-.832.2-1.147,1.082-1.113,1.712.065,3.431-.027,5.144.037.88.033,1.117-.279,1.067-1.113a28.222,28.222,0,0,1,0-3.336c.052-.879-.181-1.232-1.138-1.19-1.758.078-3.523,0-5.283.035-.658.015-.895-.176-.87-.854.047-1.3.074-2.6-.007-3.893-.06-.97.344-1.149,1.2-1.125,1.945.055,3.894-.019,5.839.033.841.023,1.266-.114,1.183-1.1a23.748,23.748,0,0,1,0-3.475c.054-.844-.177-1.1-1.059-1.088q-6.326.076-12.654,0c-.96-.013-1.121.317-1.113,1.176.038,4.5.018,9,.018,13.493q0,6.816,0,13.632c0,.569-.093,1.062.8,1.055,4.5-.039,8.992-.027,13.488,0,.607,0,.8-.184.785-.788-.038-1.3-.062-2.6.007-3.894.043-.819-.258-1-1.018-.981" transform="translate(-516.3 -40.631)" fill="#2d2b28"/>
    <path id="Path_10" data-name="Path 10" d="M923.337,56.327c-3.8.061-7.6.024-11.4.024-2.641,0-2.641,0-2.64,2.672,0,2.946,0,2.989,2.914,2.929,1.043-.021,1.4.2,1.392,1.344-.06,6.952-.028,13.9-.033,20.857a2,2,0,0,1-.342,1.514c2.1,0,3.945-.056,5.79.023.962.041,1.241-.215,1.234-1.206-.045-6.859-.024-13.719-.024-20.579,0-1.927,0-1.927,1.862-1.927a14.034,14.034,0,0,1,1.528.01c.76.083.943-.25.914-.95a30.43,30.43,0,0,1,.008-3.474c.07-.959-.21-1.252-1.2-1.237" transform="translate(-655.935 -40.632)" fill="#2d2b28"/>
    <path id="Path_11" data-name="Path 11" d="M886.033,57.276c0-.7-.179-.978-.927-.952-1.525.053-3.057.078-4.58-.008-.963-.054-1.117.322-1.11,1.176.038,4.444.018,8.889.018,13.333,0,4.583.02,9.167-.017,13.75-.006.813.143,1.151,1.047,1.1,1.523-.081,3.055-.069,4.58-.005.826.034.991-.287.989-1.037q-.031-13.68,0-27.36" transform="translate(-634.378 -40.621)" fill="#2d2b28"/>
    <path id="Path_12" data-name="Path 12" d="M.011,30.419q0-7.448-.011-14.9A.442.442,0,0,1,.25,15.1c1.025-.615,2.062-1.207,3.087-1.821Q6.654,11.29,9.963,9.289c.945-.57,1.88-1.158,2.838-1.706S14.679,6.43,15.642,5.9c.981-.541,1.882-1.217,2.883-1.714.866-.431,1.65-.99,2.485-1.469.742-.426,1.476-.879,2.2-1.336S24.692.468,25.453.053c.315-.172.6.123.822.276C27.1.889,27.97,1.363,28.8,1.9c.886.57,1.812,1.079,2.718,1.618q1.157.689,2.309,1.386c1.259.758,2.506,1.538,3.78,2.269.93.534,1.841,1.1,2.763,1.645,1.107.657,2.21,1.322,3.315,1.982q1.931,1.152,3.862,2.3c1.127.674,2.245,1.363,3.379,2.023a.562.562,0,0,1,.285.411,1.621,1.621,0,0,1,.006.337q0,14.653.009,29.3a.655.655,0,0,1-.415.678c-.418.215-.8.489-1.211.729-.519.307-1.047.6-1.565.909-1.13.675-2.254,1.359-3.383,2.035-1.263.755-2.531,1.5-3.791,2.259-1.087.655-2.146,1.36-3.254,1.978-1.151.642-2.256,1.358-3.395,2.021q-1.349.785-2.691,1.583c-.5.3-.984.624-1.49.913-1,.572-1.96,1.222-2.975,1.775-.465.253-.912.54-1.356.828a.18.18,0,0,1-.249,0q-1.1-.686-2.21-1.346c-1.423-.843-2.855-1.669-4.274-2.519-1.256-.753-2.495-1.535-3.749-2.293-1.627-.984-3.261-1.956-4.893-2.932Q7.28,49.97,4.226,48.147c-1.347-.8-2.694-1.607-4.051-2.393-.176-.1-.163-.219-.163-.363q0-2.069,0-4.138V30.419M4.922,30.4H4.9q0,6.016-.007,12.033a.624.624,0,0,0,.338.622c.522.309,1.032.649,1.554.95.967.557,1.913,1.145,2.876,1.707,1.476.861,2.934,1.75,4.4,2.628q2.246,1.344,4.494,2.684c1.314.787,2.624,1.579,3.938,2.367.91.545,1.829,1.075,2.73,1.635a.629.629,0,0,0,.741-.008q.878-.539,1.761-1.072,2.564-1.541,5.13-3.079,3.65-2.189,7.3-4.377,2.954-1.767,5.911-3.527a.374.374,0,0,0,.206-.361c-.005-.412.026-.824.026-1.237q0-11.321,0-22.643c0-.1,0-.2,0-.3a.624.624,0,0,0-.376-.595c-1.7-1-3.394-2.023-5.088-3.039L32.187,9.609Q29,7.7,25.815,5.787a.4.4,0,0,0-.485.01c-1.132.7-2.277,1.372-3.418,2.053l-4.427,2.641q-2.39,1.426-4.779,2.854c-1.5.9-3,1.806-4.507,2.7-.963.569-1.908,1.171-2.884,1.718a.646.646,0,0,0-.4.646c.014,4,.009,8,.009,12" transform="translate(0 -0.001)" fill="#2d2b28"/>
    <path id="Path_13" data-name="Path 13" d="M28.587,68.564c1.508,0,2.973.009,4.438,0,2.206-.018,4.412-.038,6.618,0a31.7,31.7,0,0,1,4.064.326,6.485,6.485,0,0,1,2.069.6,5.766,5.766,0,0,1,2.935,3.422,5.589,5.589,0,0,1,.264,2.929,4.4,4.4,0,0,1-2.6,3.516c-.042.017-.072.062-.14.123a10.305,10.305,0,0,1,1.774,1.466A5.564,5.564,0,0,1,49.871,85a6.2,6.2,0,0,1-.8,2.655,5.259,5.259,0,0,1-2.56,2.472,5.937,5.937,0,0,1-1.713.6c-.52.072-1,.29-1.531.359a27.979,27.979,0,0,1-3.091.16A2.47,2.47,0,0,1,39,91.083c.65-.229,1.292-.486,1.952-.681a7.578,7.578,0,0,0,3.991-2.569,3.756,3.756,0,0,0,.61-2.867,4.017,4.017,0,0,0-.972-2.149,4.148,4.148,0,0,0-2.321-1.307,10.231,10.231,0,0,0-2.231-.136c-1.805,0-3.61-.006-5.415.006a.445.445,0,0,1-.488-.33c-.431-1.04-.883-2.071-1.342-3.1-.116-.26-.092-.339.215-.337q3.911.022,7.822.02a7.683,7.683,0,0,0,2.259-.2,2.3,2.3,0,0,0,1.166-3.76,3.323,3.323,0,0,0-2.214-1.119,12.123,12.123,0,0,0-2-.115c-2.256.005-4.512.022-6.769.031-.9,0-1.807-.006-2.711,0-.21,0-.332-.025-.387-.279a9.311,9.311,0,0,0-.736-1.607c-.277-.649-.545-1.3-.846-2.022" transform="translate(-20.622 -49.443)" fill="#ee8022"/>
    <path id="Path_14" data-name="Path 14" d="M99.485,79.852h3.426c.865,0,1.731.026,2.594-.008a3.569,3.569,0,0,0,2.568-1.08,3.3,3.3,0,0,0,.917-2.247,3.735,3.735,0,0,0-.619-2.394,3.2,3.2,0,0,0-2.279-1.351,32.8,32.8,0,0,0-4.479-.128.565.565,0,0,1-.541-.291c-.808-1.22-1.633-2.429-2.454-3.645.106-.11.224-.062.326-.061,1.9.021,3.805,0,5.7.089a11.866,11.866,0,0,1,3.545.417A7.23,7.23,0,0,1,112.6,73a7.528,7.528,0,0,1,.663,3.871,7.278,7.278,0,0,1-1.4,3.957,5.971,5.971,0,0,1-2.582,1.881c-.457.178-.928.322-1.391.485-.158.055-.271.106-.108.308.823,1.017,1.714,1.973,2.586,2.945,1.287,1.433,2.639,2.81,3.8,4.35.087.115.152.246.258.422h-.367c-1.429,0-2.857,0-4.286.006a.5.5,0,0,1-.435-.19c-1.236-1.413-2.494-2.808-3.735-4.216-1.371-1.556-2.731-3.123-4.1-4.683-.648-.739-1.3-1.471-2.018-2.278" transform="translate(-71.14 -49.51)" fill="#2d2b28"/>
  </g>
</svg>
