<svg width="145" height="145" viewBox="0 0 145 145" fill="none" xmlns="http://www.w3.org/2000/svg">
<rect width="145" height="145" fill="white"/>
<path d="M15.6757 115.608V101.892H43.1081V129.324H15.6757V115.608ZM39.1892 115.608V105.811H19.5946V125.405H39.1892V115.608ZM23.5135 115.608V109.73H35.2703V121.486H23.5135V115.608ZM50.9459 127.365V125.405H47.027V117.568H50.9459V105.811H54.8648V101.892H47.027V97.973H31.3513V94.054H35.2703V90.1351H27.4324V97.973H23.5135V94.054H15.6757V90.1351H23.5135V82.2973H19.5946V86.2162H15.6757V78.3784H23.5135V82.2973H27.4324V86.2162H31.3513V82.2973H35.2703V86.2162H43.1081V82.2973H39.1892V78.3784H27.4324V74.4594H39.1892V70.5405H27.4324V66.6216H23.5135V70.5405H15.6757V58.7838H19.5946V62.7027H43.1081V58.7838H39.1892V54.8648H31.3513V58.7838H27.4324V54.8648H19.5946V47.027H27.4324V54.8648H31.3513V50.9459H39.1892V47.027H43.1081V50.9459H39.1892V54.8648H43.1081V58.7838H47.027V50.9459H50.9459V47.027H47.027V35.2703H54.8648V39.1892H58.7838V43.1081H54.8648V47.027H58.7838V70.5405H50.9459V66.6216H47.027V70.5405H43.1081V74.4594H39.1892V78.3784H43.1081V82.2973H47.027V86.2162H54.8648V82.2973H50.9459V78.3784H47.027V74.4594H54.8648V82.2973H58.7838V74.4594H62.7027V82.2973H66.6216V70.5405H70.5405V66.6216H74.4594V70.5405H70.5405V74.4594H74.4594V78.3784H86.2162V74.4594H82.2973V70.5405H78.3784V62.7027H74.4594V58.7838H78.3784V54.8648H82.2973V50.9459H78.3784V47.027H74.4594V54.8648H70.5405V50.9459H66.6216V54.8648H62.7027V50.9459H66.6216V47.027H62.7027V35.2703H58.7838V31.3513H62.7027V35.2703H66.6216V19.5946H70.5405V27.4324H78.3784V23.5135H74.4594V15.6757H82.2973V19.5946H78.3784V23.5135H86.2162V19.5946H90.1351V15.6757H97.973V27.4324H90.1351V23.5135H86.2162V31.3513H90.1351V43.1081H94.054V39.1892H97.973V58.7838H105.811V54.8648H101.892V47.027H109.73V58.7838H117.568V54.8648H113.649V47.027H117.568V54.8648H121.486V50.9459H129.324V58.7838H125.405V54.8648H121.486V58.7838H117.568V70.5405H121.486V74.4594H117.568V78.3784H109.73V82.2973H105.811V86.2162H97.973V82.2973H94.054V78.3784H90.1351V86.2162H94.054V90.1351H105.811V94.054H113.649V90.1351H109.73V86.2162H113.649V82.2973H117.568V86.2162H121.486V90.1351H125.405V82.2973H121.486V78.3784H129.324V90.1351H125.405V97.973H129.324V105.811H125.405V117.568H129.324V121.486H117.568V129.324H105.811V125.405H113.649V121.486H105.811V113.649H101.892V121.486H97.973V125.405H101.892V129.324H94.054V117.568H90.1351V125.405H86.2162V121.486H82.2973V105.811H86.2162V117.568H90.1351V105.811H94.054V97.973H90.1351V94.054H86.2162V90.1351H90.1351V86.2162H86.2162V82.2973H82.2973V97.973H86.2162V101.892H78.3784V109.73H74.4594V117.568H78.3784V121.486H74.4594V125.405H82.2973V129.324H74.4594V125.405H70.5405V121.486H66.6216V129.324H50.9459V127.365ZM62.7027 121.486V117.568H66.6216V105.811H58.7838V109.73H62.7027V113.649H54.8648V117.568H50.9459V121.486H54.8648V125.405H62.7027V121.486ZM117.568 117.568V113.649H121.486V105.811H125.405V101.892H121.486V90.1351H117.568V101.892H121.486V105.811H117.568V109.73H113.649V121.486H117.568V117.568ZM97.973 115.608V113.649H94.054V117.568H97.973V115.608ZM74.4594 107.77V105.811H70.5405V109.73H74.4594V107.77ZM109.73 103.851V97.973H97.973V109.73H109.73V103.851ZM101.892 103.851V101.892H105.811V105.811H101.892V103.851ZM70.5405 99.9324V97.973H78.3784V94.054H70.5405V90.1351H66.6216V94.054H70.5405V97.973H62.7027V94.054H58.7838V97.973H54.8648V94.054H50.9459V90.1351H47.027V86.2162H43.1081V90.1351H39.1892V94.054H43.1081V90.1351H47.027V94.054H50.9459V97.973H54.8648V101.892H70.5405V99.9324ZM58.7838 88.1757V86.2162H54.8648V90.1351H58.7838V88.1757ZM78.3784 86.2162V82.2973H70.5405V86.2162H74.4594V90.1351H78.3784V86.2162ZM101.892 80.3378V78.3784H97.973V82.2973H101.892V80.3378ZM109.73 76.4189V74.4594H113.649V62.7027H109.73V66.6216H105.811V70.5405H101.892V66.6216H94.054V62.7027H90.1351V58.7838H94.054V47.027H90.1351V43.1081H86.2162V39.1892H82.2973V43.1081H78.3784V31.3513H82.2973V35.2703H86.2162V31.3513H82.2973V27.4324H78.3784V31.3513H74.4594V43.1081H78.3784V47.027H82.2973V43.1081H86.2162V54.8648H82.2973V58.7838H78.3784V62.7027H82.2973V70.5405H86.2162V66.6216H94.054V70.5405H97.973V74.4594H105.811V78.3784H109.73V76.4189ZM105.811 72.5V70.5405H109.73V74.4594H105.811V72.5ZM43.1081 68.5811V66.6216H47.027V62.7027H43.1081V66.6216H39.1892V70.5405H43.1081V68.5811ZM54.8648 60.7432V58.7838H50.9459V62.7027H54.8648V60.7432ZM54.8648 41.1486V39.1892H50.9459V43.1081H54.8648V41.1486ZM70.5405 39.1892V35.2703H66.6216V43.1081H70.5405V39.1892ZM94.054 21.554V19.5946H90.1351V23.5135H94.054V21.554ZM125.405 127.365V125.405H129.324V129.324H125.405V127.365ZM125.405 70.5405V66.6216H121.486V62.7027H125.405V66.6216H129.324V74.4594H125.405V70.5405ZM15.6757 29.3919V15.6757H43.1081V43.1081H15.6757V29.3919ZM39.1892 29.3919V19.5946H19.5946V39.1892H39.1892V29.3919ZM23.5135 29.3919V23.5135H35.2703V35.2703H23.5135V29.3919ZM101.892 29.3919V15.6757H129.324V43.1081H101.892V29.3919ZM125.405 29.3919V19.5946H105.811V39.1892H125.405V29.3919ZM109.73 29.3919V23.5135H121.486V35.2703H109.73V29.3919ZM47.027 29.3919V27.4324H50.9459V31.3513H47.027V29.3919ZM54.8648 25.473V23.5135H50.9459V15.6757H54.8648V19.5946H58.7838V15.6757H62.7027V19.5946H58.7838V27.4324H54.8648V25.473Z" fill="black"/>
</svg>
