<svg id="Component_1_2" data-name="Component 1 – 2" xmlns="http://www.w3.org/2000/svg" width="102" height="102" viewBox="0 0 102 102">
  <circle id="Ellipse_1" data-name="Ellipse 1" cx="51" cy="51" r="51" fill="#2d2b28"/>
  <g id="Group_10" data-name="Group 10" transform="translate(-855 -319.875)">
    <path id="Path_32" data-name="Path 32" d="M34.758,4.421V7.012a2.817,2.817,0,0,1-2.815,2.817h-9.7a.656.656,0,0,0-.655.655V43.85a2.815,2.815,0,0,1-2.815,2.815H15.989a2.817,2.817,0,0,1-2.817-2.815V10.484a.654.654,0,0,0-.653-.655h-9.7A2.816,2.816,0,0,1,0,7.014V4.421A2.817,2.817,0,0,1,2.817,1.606H31.943a2.813,2.813,0,0,1,2.815,2.815" transform="translate(871 346.269)" fill="#fff"/>
    <path id="Path_36" data-name="Path 36" d="M31.334,1.606H20.468a1.146,1.146,0,0,0-1.145,1.145V6.027a1.148,1.148,0,0,0,1.145,1.147H29.1c4.387,0,7.266,1.556,8.495,4.336a1.154,1.154,0,0,1-1.052,1.62H20.468a1.146,1.146,0,0,0-1.145,1.145v1.495a1.146,1.146,0,0,0,1.145,1.145H36.591a1.158,1.158,0,0,1,1.064,1.594c-1.147,2.863-3.945,4.4-8.394,4.4H20.468a1.147,1.147,0,0,0-1.145,1.145v4.616a1.143,1.143,0,0,0,.351.824l17.51,16.855a1.141,1.141,0,0,0,.794.322H45.62a1.146,1.146,0,0,0,.788-1.977l-16.531-15.7h1.781c8.822-.246,13.325-5.688,14.476-11.2a1.127,1.127,0,0,1,1.114-.877h3.3a1.145,1.145,0,0,0,1.145-1.145V14.276a1.145,1.145,0,0,0-1.145-1.145h-3.19a1.134,1.134,0,0,1-1.126-.939,12.348,12.348,0,0,0-1.6-4.509,1.151,1.151,0,0,1,.959-1.773h4.961a1.145,1.145,0,0,0,1.145-1.145V2.751a1.145,1.145,0,0,0-1.145-1.145Z" transform="translate(890.038 346.269)" fill="#f82228"/>
  </g>
</svg>
