<?xml version="1.0" encoding="UTF-8"?><svg id="Layer_1" xmlns="http://www.w3.org/2000/svg" viewBox="0 0 40 40"><circle cx="20" cy="20" r="20" style="fill:#fff;"/><g><path d="m23.92,32.3c0-2.58,4.9-12.83,4.9-13.67,0-.08-.07-.23-.14-.23-.78,0-8.29,7.52-10.12,9.19-5.03,4.86-7.19,7.82-9.21,7.82-1.24,0-1.89-1.14-1.89-2.12,0-1.82,1.43-5.39,2.02-7.06h-.13c-.39.38-2.42,2.51-2.75,2.51s-.32-3.04-.32-4.33c0-1.6.72-2.36,2.15-3.65.79-.68,7.06-7.14,7.84-10.86.26-1.06.59-1.52.91-1.52h5.55c-1.37,3.57-4.44,10.86-4.44,11.24,0,.15.13.23.33.23.72,0,12.21-11.92,15.55-11.92.84,0,1.5.13,2.01.36C32.55,3.27,26.67,0,20,0,8.95,0,0,8.95,0,20s8.95,20,20,20c6.97,0,13.1-3.57,16.68-8.98-2.94,2.15-6.85,4.4-8.98,4.4-2.29,0-3.79-.91-3.79-3.11Z" style="fill:#0c6;"/><path d="m37.62,10.54c0,.07.01.13.01.19,0,2.58-6.34,14.73-6.34,16.63,0,.38.07.76.33.76,1.63,0,7.31-5.37,8.27-6.19.06-.64.1-1.28.1-1.94,0-3.42-.86-6.64-2.38-9.46Z" style="fill:#00ab55;"/></g></svg>