<svg width="51" height="50" viewBox="0 0 51 50" fill="none" xmlns="http://www.w3.org/2000/svg">
<g filter="url(#filter0_i_409_815)">
<path fill-rule="evenodd" clip-rule="evenodd" d="M5.55556 50H34.9996C39.8447 50 44.1867 47.8465 47.1208 44.4444H27.7778C24.4907 44.4444 21.8171 43.4143 19.7569 41.3542C17.6968 39.294 16.6667 36.6204 16.6667 33.3333V16.6667C16.6667 13.3796 17.6968 10.706 19.7569 8.64583C21.8171 6.58565 24.4907 5.55556 27.7778 5.55556H50C50 4.02778 49.456 2.71991 48.3681 1.63194C47.2801 0.543981 45.9722 0 44.4444 0H5.55556C4.02778 0 2.71991 0.543981 1.63194 1.63194C0.543982 2.71991 0 4.02778 0 5.55556V44.4444C0 45.9722 0.543982 47.2801 1.63194 48.3681C2.71991 49.456 4.02778 50 5.55556 50ZM50.9996 12.6014V34C50.9996 35.3027 50.844 36.569 50.5502 37.7814C49.5901 38.5197 48.4808 38.8889 47.2222 38.8889H27.7778C26.25 38.8889 24.9421 38.3449 23.8542 37.2569C22.7662 36.169 22.2222 34.8611 22.2222 33.3333V16.6667C22.2222 15.1389 22.7662 13.831 23.8542 12.7431C24.9421 11.6551 26.25 11.1111 27.7778 11.1111H47.2222C48.6822 11.1111 49.9413 11.6079 50.9996 12.6014ZM39.0972 27.9861C38.3102 28.7731 37.3148 29.1667 36.1111 29.1667C34.9074 29.1667 33.912 28.7731 33.125 27.9861C32.338 27.1991 31.9444 26.2037 31.9444 25C31.9444 23.7963 32.338 22.8009 33.125 22.0139C33.912 21.2269 34.9074 20.8333 36.1111 20.8333C37.3148 20.8333 38.3102 21.2269 39.0972 22.0139C39.8843 22.8009 40.2778 23.7963 40.2778 25C40.2778 26.2037 39.8843 27.1991 39.0972 27.9861Z" fill="#36B37E" fill-opacity="0.75"/>
</g>
<defs>
<filter id="filter0_i_409_815" x="0" y="0" width="50.9995" height="54" filterUnits="userSpaceOnUse" color-interpolation-filters="sRGB">
<feFlood flood-opacity="0" result="BackgroundImageFix"/>
<feBlend mode="normal" in="SourceGraphic" in2="BackgroundImageFix" result="shape"/>
<feColorMatrix in="SourceAlpha" type="matrix" values="0 0 0 0 0 0 0 0 0 0 0 0 0 0 0 0 0 0 127 0" result="hardAlpha"/>
<feOffset dy="4"/>
<feGaussianBlur stdDeviation="2"/>
<feComposite in2="hardAlpha" operator="arithmetic" k2="-1" k3="1"/>
<feColorMatrix type="matrix" values="0 0 0 0 0.0919497 0 0 0 0 0.630512 0 0 0 0 0.402162 0 0 0 0.25 0"/>
<feBlend mode="normal" in2="shape" result="effect1_innerShadow_409_815"/>
</filter>
</defs>
</svg>
