<svg width="37" height="50" viewBox="0 0 37 50" fill="none" xmlns="http://www.w3.org/2000/svg">
<g filter="url(#filter0_i_129_10036)">
<path fill-rule="evenodd" clip-rule="evenodd" d="M22.9001 50.0002C28.7359 49.6833 33.7398 46.239 36.2649 41.3141L32.1372 38.7715C31.5424 38.4042 30.8597 38.2116 30.1626 38.2116H18.1646C17.37 38.2116 16.7259 38.8582 16.7259 39.6504C16.7259 40.4414 17.37 41.088 18.1646 41.088H24.163C24.4941 41.088 24.765 41.3577 24.765 41.69C24.765 42.0199 24.4941 42.292 24.163 42.292H18.1646C17.7432 42.292 17.3459 42.1933 16.9956 42.0175L1.16887 38.0731C0.736627 37.9648 0.285124 38.1791 0.0900749 38.5788C-0.130259 39.0496 0.0671981 39.6143 0.534353 39.837L20.2331 49.2813C21.0658 49.6817 21.9776 49.9263 22.9001 50.0002ZM17.3752 0.966818C17.3066 0.97645 17.2416 0.97645 17.1729 0.966818L11.4756 0L14.3628 6.94713H20.1878L23.0726 0L17.3752 0.966818ZM14.0184 8.15594C8.9447 9.18296 4.60545 12.5879 2.40453 17.2751C-1.43746 25.4575 2.08306 35.2377 10.2486 39.1038L15.6414 40.4474C15.5607 40.1958 15.5186 39.9321 15.5186 39.6564C15.5186 38.1984 16.7057 37.0136 18.1614 37.0136H27.6056C30.5843 34.602 32.636 31.2175 33.3837 27.455C35.1427 18.5863 29.3707 9.94028 20.5152 8.15594H14.0184ZM11.0531 26.4167L17.8006 33.4401H20.5848L13.8374 26.4167H14.5648C16.0196 26.4167 17.2654 25.936 18.3022 24.9744C19.339 24.0129 19.9243 22.8214 20.0581 21.4H22.0898V19.3934H19.8825C19.7822 19.0087 19.64 18.6492 19.4561 18.3148C19.2721 17.9803 19.0631 17.671 18.829 17.3867H22.0898V15.38H10.0498V17.3867H14.5648C15.2671 17.3867 15.8984 17.5748 16.4586 17.9511C17.0188 18.3273 17.441 18.8081 17.7253 19.3934H10.0498V21.4H18.0263C17.8925 22.2529 17.5037 22.9678 16.8599 23.5447C16.2161 24.1216 15.4511 24.4101 14.5648 24.4101H11.0531V26.4167Z" fill="#FFAB00" fill-opacity="0.75"/>
</g>
<defs>
<filter id="filter0_i_129_10036" x="0" y="0" width="36.2646" height="54.0002" filterUnits="userSpaceOnUse" color-interpolation-filters="sRGB">
<feFlood flood-opacity="0" result="BackgroundImageFix"/>
<feBlend mode="normal" in="SourceGraphic" in2="BackgroundImageFix" result="shape"/>
<feColorMatrix in="SourceAlpha" type="matrix" values="0 0 0 0 0 0 0 0 0 0 0 0 0 0 0 0 0 0 127 0" result="hardAlpha"/>
<feOffset dy="4"/>
<feGaussianBlur stdDeviation="2"/>
<feComposite in2="hardAlpha" operator="arithmetic" k2="-1" k3="1"/>
<feColorMatrix type="matrix" values="0 0 0 0 0.838845 0 0 0 0 0.56252 0 0 0 0 0 0 0 0 0.25 0"/>
<feBlend mode="normal" in2="shape" result="effect1_innerShadow_129_10036"/>
</filter>
</defs>
</svg>
