<svg width="45" height="50" viewBox="0 0 45 50" fill="none" xmlns="http://www.w3.org/2000/svg">
<g filter="url(#filter0_i_129_10030)">
<path d="M7.5 50C5.41667 50 3.64583 49.2708 2.1875 47.8125C0.729167 46.3542 0 44.5833 0 42.5V35H7.5V0H45V42.5C45 44.5833 44.2708 46.3542 42.8125 47.8125C41.3542 49.2708 39.5833 50 37.5 50H7.5ZM37.5 45C38.2083 45 38.8021 44.7604 39.2812 44.2812C39.7604 43.8021 40 43.2083 40 42.5V5H12.5V35H35V42.5C35 43.2083 35.2396 43.8021 35.7188 44.2812C36.1979 44.7604 36.7917 45 37.5 45ZM15 17.5V12.5H37.5V17.5H15ZM15 25V20H37.5V25H15Z" fill="#0000FF" fill-opacity="0.75"/>
</g>
<defs>
<filter id="filter0_i_129_10030" x="0" y="0" width="45" height="54" filterUnits="userSpaceOnUse" color-interpolation-filters="sRGB">
<feFlood flood-opacity="0" result="BackgroundImageFix"/>
<feBlend mode="normal" in="SourceGraphic" in2="BackgroundImageFix" result="shape"/>
<feColorMatrix in="SourceAlpha" type="matrix" values="0 0 0 0 0 0 0 0 0 0 0 0 0 0 0 0 0 0 127 0" result="hardAlpha"/>
<feOffset dy="4"/>
<feGaussianBlur stdDeviation="2"/>
<feComposite in2="hardAlpha" operator="arithmetic" k2="-1" k3="1"/>
<feColorMatrix type="matrix" values="0 0 0 0 0 0 0 0 0 0.612354 0 0 0 0 0.722179 0 0 0 0.25 0"/>
<feBlend mode="normal" in2="shape" result="effect1_innerShadow_129_10030"/>
</filter>
</defs>
</svg>
