<svg width="24" height="24" viewBox="0 0 24 24" fill="none" xmlns="http://www.w3.org/2000/svg">
<circle cx="12" cy="12" r="12" fill="#36B37E"/>
<mask id="mask0_129_9955" style="mask-type:alpha" maskUnits="userSpaceOnUse" x="4" y="4" width="16" height="16">
<rect x="4" y="4" width="16" height="16" fill="#D9D9D9"/>
</mask>
<g mask="url(#mask0_129_9955)">
<path d="M6.26683 16L5.3335 15.0666L8.86682 11.5333C9.25571 11.1444 9.72793 10.95 10.2835 10.95C10.839 10.95 11.3113 11.1444 11.7001 11.5333L12.4668 12.3C12.6001 12.4333 12.7585 12.5 12.9418 12.5C13.1251 12.5 13.2835 12.4333 13.4168 12.3L16.3835 9.33333H14.6668V8H18.6668V12H17.3335V10.2833L14.3501 13.25C13.9612 13.6389 13.489 13.8333 12.9335 13.8333C12.3779 13.8333 11.9057 13.6389 11.5168 13.25L10.7335 12.4667C10.6113 12.3444 10.4557 12.2833 10.2668 12.2833C10.0779 12.2833 9.92237 12.3444 9.80015 12.4667L6.26683 16Z" fill="white"/>
</g>
</svg>
