<svg width="45" height="20" viewBox="0 0 45 20" fill="none" xmlns="http://www.w3.org/2000/svg">
<path d="M18.625 10.7792C18.625 9.67466 19.5204 8.77924 20.625 8.77924H23.375C24.4796 8.77924 25.375 9.67467 25.375 10.7792V20H18.625V10.7792Z" fill="#FF5630"/>
<path d="M36.125 13.5844C36.125 12.4798 37.0204 11.5844 38.125 11.5844H40.875C41.9796 11.5844 42.875 12.4798 42.875 13.5844V20H36.125V13.5844Z" fill="#FF5630"/>
<path d="M1.125 6.57144C1.125 5.46687 2.02043 4.57144 3.125 4.57144H5.875C6.97957 4.57144 7.875 5.46687 7.875 6.57144V20H1.125V6.57144Z" fill="#FF5630"/>
<path d="M9.875 7.97406C9.875 6.86949 10.7704 5.97406 11.875 5.97406H14.625C15.7296 5.97406 16.625 6.86949 16.625 7.97406V20H9.875V7.97406Z" fill="#FF5630"/>
<path d="M27.375 9.37662C27.375 8.27205 28.2704 7.37662 29.375 7.37662H32.125C33.2296 7.37662 34.125 8.27205 34.125 9.37662V20H27.375V9.37662Z" fill="#FF5630"/>
</svg>
