<svg width="45" height="20" viewBox="0 0 45 20" fill="none" xmlns="http://www.w3.org/2000/svg">
<path d="M1.125 10.7792C1.125 9.67466 2.02043 8.77924 3.125 8.77924H5.875C6.97957 8.77924 7.875 9.67467 7.875 10.7792V20H1.125V10.7792Z" fill="#36B37E"/>
<path d="M10.125 13.5844C10.125 12.4798 11.0204 11.5844 12.125 11.5844H14.875C15.9796 11.5844 16.875 12.4798 16.875 13.5844V20H10.125V13.5844Z" fill="#36B37E"/>
<path d="M19.125 6.57144C19.125 5.46687 20.0204 4.57144 21.125 4.57144H23.875C24.9796 4.57144 25.875 5.46687 25.875 6.57144V20H19.125V6.57144Z" fill="#36B37E"/>
<path d="M28.125 7.97406C28.125 6.86949 29.0204 5.97406 30.125 5.97406H32.875C33.9796 5.97406 34.875 6.86949 34.875 7.97406V20H28.125V7.97406Z" fill="#36B37E"/>
<path d="M37.125 9.37662C37.125 8.27205 38.0204 7.37662 39.125 7.37662H41.875C42.9796 7.37662 43.875 8.27205 43.875 9.37662V20H37.125V9.37662Z" fill="#36B37E"/>
</svg>
