<svg width="52" height="50" viewBox="0 0 52 50" fill="none" xmlns="http://www.w3.org/2000/svg">
<g clip-path="url(#clip0_237_6165)">
<rect x="6.06152" y="9.82401" width="43.0584" height="34.6975" fill="white"/>
<path d="M44.6239 50H8.65344C6.15354 50 4.11768 47.9662 4.11768 45.4642V9.49167C4.11768 6.99177 6.15145 4.9559 8.65344 4.9559H44.626C47.1259 4.9559 49.1618 6.98968 49.1618 9.49167V17.656H30.8996C29.7813 17.656 28.8721 18.5653 28.8721 19.6835V35.2724C28.8721 36.3906 29.7813 37.2999 30.8996 37.2999H49.1618V45.4642C49.1618 47.9641 47.128 50 44.626 50H44.6239ZM8.65344 7.46625C7.53518 7.46625 6.62593 8.37549 6.62593 9.49376V45.4663C6.62593 46.5846 7.53518 47.4938 8.65344 47.4938H44.626C45.7443 47.4938 46.6535 46.5846 46.6535 45.4663V39.8102H30.8996C28.3997 39.8102 26.3638 37.7764 26.3638 35.2744V19.6856C26.3638 17.1857 28.3976 15.1499 30.8996 15.1499H46.6535V9.49376C46.6535 8.37549 45.7443 7.46625 44.626 7.46625H8.65344Z" fill="white"/>
<path d="M26.3618 35.2724V19.6835C26.3618 17.1836 28.3956 15.1478 30.8975 15.1478H46.6515V9.49166C46.6515 8.3734 45.7422 7.46416 44.624 7.46416H8.65348C7.53522 7.46416 6.62598 8.3734 6.62598 9.49166V45.4642C6.62598 46.5825 7.53522 47.4917 8.65348 47.4917H44.6261C45.7443 47.4917 46.6536 46.5825 46.6536 45.4642V39.8081H30.8996C28.3997 39.8081 26.3639 37.7743 26.3639 35.2724H26.3618Z" fill="#6670B8"/>
<path d="M47.3979 36.9821H33.0549C30.9814 36.9821 29.2925 35.2933 29.2925 33.2198V21.7988C29.2925 19.7233 30.9814 18.0365 33.0549 18.0365H47.3979C49.4714 18.0365 51.1603 19.7233 51.1603 21.7988V33.2198C51.1603 35.2933 49.4714 36.9821 47.3979 36.9821Z" fill="#6670B8"/>
<path d="M37.9833 32.0012C35.4667 32.0012 33.4204 29.9549 33.4204 27.4382C33.4204 24.9216 35.4667 22.8753 37.9833 22.8753C40.5 22.8753 42.5463 24.9216 42.5463 27.4382C42.5463 29.9549 40.5 32.0012 37.9833 32.0012ZM37.9833 25.3836C36.8505 25.3836 35.9287 26.3053 35.9287 27.4382C35.9287 28.5711 36.8505 29.4929 37.9833 29.4929C39.1162 29.4929 40.038 28.5711 40.038 27.4382C40.038 26.3053 39.1162 25.3836 37.9833 25.3836Z" fill="white"/>
<path d="M12.6918 22.8753C18.316 22.8753 22.8753 18.316 22.8753 12.6918C22.8753 7.06757 18.316 2.50826 12.6918 2.50826C7.06762 2.50826 2.5083 7.06757 2.5083 12.6918C2.5083 18.316 7.06762 22.8753 12.6918 22.8753Z" fill="#6670B8"/>
<path d="M12.6918 25.3836C5.69374 25.3836 0 19.6898 0 12.6918C0 5.69374 5.69374 0 12.6918 0C19.6898 0 25.3836 5.69374 25.3836 12.6918C25.3836 19.6898 19.6898 25.3836 12.6918 25.3836ZM12.6918 2.50826C7.07746 2.50826 2.50826 7.07746 2.50826 12.6918C2.50826 18.3061 7.07746 22.8753 12.6918 22.8753C18.3061 22.8753 22.8753 18.3061 22.8753 12.6918C22.8753 7.07746 18.3061 2.50826 12.6918 2.50826Z" fill="white"/>
<path d="M18.3123 13.9459H7.06907C6.37721 13.9459 5.81494 13.3836 5.81494 12.6918C5.81494 11.9999 6.37721 11.4377 7.06907 11.4377H18.3123C19.0042 11.4377 19.5665 11.9999 19.5665 12.6918C19.5665 13.3836 19.0042 13.9459 18.3123 13.9459Z" fill="white"/>
<path d="M12.6916 19.5665C11.9998 19.5665 11.4375 19.0042 11.4375 18.3124V7.0691C11.4375 6.37724 11.9998 5.81497 12.6916 5.81497C13.3835 5.81497 13.9458 6.37724 13.9458 7.0691V18.3124C13.9458 19.0042 13.3835 19.5665 12.6916 19.5665Z" fill="white"/>
</g>
<defs>
<clipPath id="clip0_237_6165">
<rect width="51.1601" height="50" fill="white"/>
</clipPath>
</defs>
</svg>
