<svg width="53" height="50" viewBox="0 0 53 50" fill="none" xmlns="http://www.w3.org/2000/svg">
<g clip-path="url(#clip0_237_6140)">
<path d="M46.1093 50H10.0211C7.51312 50 5.4707 47.9662 5.4707 45.4642V9.49167C5.4707 6.99177 7.51102 4.9559 10.0211 4.9559H46.1093C48.6173 4.9559 50.6597 6.98968 50.6597 9.49167V17.656H32.3388C31.2169 17.656 30.3047 18.5653 30.3047 19.6835V35.2724C30.3047 36.3906 31.2169 37.2999 32.3388 37.2999H50.6597V45.4642C50.6597 47.9641 48.6194 50 46.1093 50ZM10.0211 7.46625C8.8992 7.46625 7.98703 8.37549 7.98703 9.49376V45.4663C7.98703 46.5846 8.8992 47.4938 10.0211 47.4938H46.1093C47.2312 47.4938 48.1434 46.5846 48.1434 45.4663V39.8102H32.3388C29.8308 39.8102 27.7884 37.7764 27.7884 35.2744V19.6856C27.7884 17.1857 29.8287 15.1499 32.3388 15.1499H48.1434V9.49376C48.1434 8.37549 47.2312 7.46625 46.1093 7.46625H10.0211Z" fill="white"/>
<path d="M27.7866 35.2724V19.6835C27.7866 17.1837 29.8269 15.1478 32.3369 15.1478H48.1415V9.49166C48.1415 8.3734 47.2294 7.46416 46.1075 7.46416H10.0213C8.89947 7.46416 7.9873 8.3734 7.9873 9.49166V45.4642C7.9873 46.5825 8.89947 47.4917 10.0213 47.4917H46.1096C47.2315 47.4917 48.1436 46.5825 48.1436 45.4642V39.8081H32.339C29.8311 39.8081 27.7887 37.7743 27.7887 35.2724H27.7866Z" fill="#68C69E"/>
<path d="M48.8922 36.9821H34.503C32.4228 36.9821 30.7285 35.2953 30.7285 33.2198V21.7988C30.7285 19.7233 32.4228 18.0365 34.503 18.0365H48.8922C50.9723 18.0365 52.6667 19.7233 52.6667 21.7988V33.2198C52.6667 35.2953 50.9723 36.9821 48.8922 36.9821Z" fill="#68C69E"/>
<path d="M39.4456 29.4929C40.584 29.4929 41.5069 28.573 41.5069 27.4382C41.5069 26.3035 40.584 25.3836 39.4456 25.3836C38.3071 25.3836 37.3843 26.3035 37.3843 27.4382C37.3843 28.573 38.3071 29.4929 39.4456 29.4929Z" fill="#68C69E"/>
<path d="M39.4477 32.0012C36.923 32.0012 34.8701 29.9549 34.8701 27.4382C34.8701 24.9216 36.923 22.8753 39.4477 22.8753C41.9724 22.8753 44.0253 24.9216 44.0253 27.4382C44.0253 29.9549 41.9724 32.0012 39.4477 32.0012ZM39.4477 25.3836C38.3112 25.3836 37.3864 26.3053 37.3864 27.4382C37.3864 28.5711 38.3112 29.4929 39.4477 29.4929C40.5843 29.4929 41.509 28.5711 41.509 27.4382C41.509 26.3053 40.5843 25.3836 39.4477 25.3836Z" fill="white"/>
<path d="M12.7324 22.8753C18.3747 22.8753 22.9487 18.316 22.9487 12.6918C22.9487 7.06757 18.3747 2.50826 12.7324 2.50826C7.0901 2.50826 2.51611 7.06757 2.51611 12.6918C2.51611 18.316 7.0901 22.8753 12.7324 22.8753Z" fill="#68C69E"/>
<path d="M12.7326 25.3836C5.71206 25.3836 0 19.6898 0 12.6918C0 5.69374 5.71206 0 12.7326 0C19.7531 0 25.4652 5.69374 25.4652 12.6918C25.4652 19.6898 19.7531 25.3836 12.7326 25.3836ZM12.7326 2.50826C7.10023 2.50826 2.51632 7.07746 2.51632 12.6918C2.51632 18.3061 7.10023 22.8753 12.7326 22.8753C18.365 22.8753 22.9489 18.3061 22.9489 12.6918C22.9489 7.07746 18.365 2.50826 12.7326 2.50826Z" fill="white"/>
<path d="M12.8602 19.5121C12.1661 19.5121 11.6021 18.9499 11.6021 18.258V7.1318C11.6021 6.43994 12.1661 5.87767 12.8602 5.87767C13.5543 5.87767 14.1184 6.43994 14.1184 7.1318V18.258C14.1184 18.9499 13.5543 19.5121 12.8602 19.5121Z" fill="white"/>
<path d="M8.32254 12.8945C7.99961 12.8945 7.67878 12.7712 7.43344 12.5266C6.94276 12.0375 6.94276 11.2433 7.43344 10.7521L11.9565 6.24347C12.4472 5.75436 13.2441 5.75436 13.7347 6.24347C14.2254 6.73258 14.2254 7.52686 13.7347 8.01806L9.21164 12.5266C8.9663 12.7712 8.64337 12.8945 8.32254 12.8945Z" fill="white"/>
<path d="M17.1423 13.1307C16.7963 13.1307 16.4524 12.9907 16.205 12.7127L11.9356 7.96371C11.4722 7.44743 11.5162 6.65524 12.0321 6.1933C12.55 5.73136 13.3448 5.77526 13.8082 6.28945L18.0776 11.0384C18.541 11.5547 18.4969 12.3469 17.9811 12.8088C17.74 13.0241 17.4401 13.1286 17.1423 13.1286V13.1307Z" fill="white"/>
</g>
<defs>
<clipPath id="clip0_237_6140">
<rect width="52.6667" height="50" fill="white"/>
</clipPath>
</defs>
</svg>
