<svg width="28" height="25" viewBox="0 0 28 25" fill="none" xmlns="http://www.w3.org/2000/svg">
<path fill-rule="evenodd" clip-rule="evenodd" d="M11.8045 5.21194C11.2933 5.73967 11.2822 6.59091 11.7823 7.10716L12.0512 7.38479L9.88425 9.58517L15.365 15.0391L17.4764 12.7813L25.7064 21.2777C26.2042 21.7917 27.031 21.7825 27.5422 21.2548C28.0534 20.727 28.0645 19.8758 27.5644 19.3596L19.3033 10.8311L20.9569 9.05745L15.7762 3.60123L13.9203 5.48039L13.6359 5.1867C13.1402 4.67274 12.3157 4.68422 11.8045 5.21194ZM0.623001 23.5859C0.623001 24.1802 1.08084 24.6666 1.64314 24.6666L13.4247 24.6689C13.987 24.6689 14.4449 24.1825 14.4449 23.5882C14.4449 23.0054 13.9959 22.5075 13.4247 22.5075H12.169C12.4846 22.324 12.7002 21.9683 12.7002 21.5599C12.7002 20.9771 12.2512 20.4792 11.68 20.4792H3.39004C2.82774 20.4769 2.36768 20.9634 2.36768 21.5576C2.36768 21.9661 2.58549 22.324 2.90331 22.5075H1.64536C1.08084 22.5052 0.623001 22.9917 0.623001 23.5859ZM16.0029 0.98785C15.5961 1.40774 15.5872 2.08689 15.9851 2.49531L22.0303 8.73622C22.4282 9.14693 23.0838 9.13775 23.4905 8.71787C23.8972 8.29798 23.9061 7.61882 23.5083 7.21041L17.463 0.969494C17.0652 0.558787 16.4096 0.567965 16.0029 0.98785ZM7.40836 9.85821C7.00164 10.2781 6.99275 10.9573 7.39058 11.3657L13.4358 17.6066C13.8337 18.0173 14.4893 18.0081 14.896 17.5882C15.3028 17.1683 15.3116 16.4892 14.9138 16.0808L8.86856 9.83986C8.47295 9.42915 7.8173 9.43833 7.40836 9.85821Z" fill="#A6634E"/>
</svg>
