<svg width="44" height="50" viewBox="0 0 44 50" fill="none" xmlns="http://www.w3.org/2000/svg">
<g clip-path="url(#clip0_237_6244)">
<path d="M43.5223 34.1275C43.4869 32.6896 43.1776 30.8678 41.898 30.3467C40.963 29.9651 40.0116 30.4746 39.6456 30.6724C37.8064 31.6612 33.6463 33.6342 27.1159 36.6915C27.1017 36.6496 27.0852 36.61 27.0663 36.5682C26.5209 35.3583 24.2685 35.3606 23.8436 35.3769H13.8235V35.1466C13.8235 34.1228 12.8437 33.6691 12.3267 33.5738L8.34843 33.5668V27.8362H0V50.007H8.35079V41.3192L13.264 43.3225H29.7389L43.5318 34.4579L43.5247 34.1345L43.5223 34.1275Z" fill="#FFC040"/>
<path d="M4.17435 46.7217C3.1308 46.7217 2.2832 45.8865 2.2832 44.8581C2.2832 43.8297 3.1308 42.9944 4.17435 42.9944C5.2179 42.9944 6.0655 43.8297 6.0655 44.8581C6.0655 45.8865 5.2179 46.7217 4.17435 46.7217ZM4.17435 43.9297C3.65493 43.9297 3.23232 44.3462 3.23232 44.8581C3.23232 45.3699 3.65493 45.7864 4.17435 45.7864C4.69377 45.7864 5.11638 45.3699 5.11638 44.8581C5.11638 44.3462 4.69377 43.9297 4.17435 43.9297Z" fill="white"/>
<path d="M14.3996 24.6301C20.9753 24.6301 26.306 19.3769 26.306 12.8967C26.306 6.41654 20.9753 1.16333 14.3996 1.16333C7.82385 1.16333 2.49316 6.41654 2.49316 12.8967C2.49316 19.3769 7.82385 24.6301 14.3996 24.6301Z" fill="#FFC040"/>
<path d="M14.3994 25.7934C7.18426 25.7934 1.3125 20.007 1.3125 12.8967C1.3125 5.78641 7.18426 0 14.3994 0C21.6146 0 27.4863 5.78641 27.4863 12.8967C27.4863 20.007 21.6146 25.7934 14.3994 25.7934ZM14.3994 1.16333C7.83353 1.16333 2.49299 6.42625 2.49299 12.8967C2.49299 19.3671 7.83353 24.6301 14.3994 24.6301C20.9653 24.6301 26.3058 19.3671 26.3058 12.8967C26.3058 6.42625 20.9653 1.16333 14.3994 1.16333Z" fill="white"/>
<path d="M21.211 7.13588H7.26465L11.9418 7.16147C12.8082 7.094 14.6781 7.08004 16.2907 8.22708C16.8101 8.59702 17.5514 9.13914 17.7096 10.0535C17.83 10.7492 17.5538 11.3285 17.3956 11.6473C16.8927 12.6664 16.031 13.1596 14.9048 13.7832C14.2201 14.1624 13.2238 14.637 11.9394 14.993C13.8872 16.9358 15.8326 18.8762 17.7805 20.819" fill="#FFC040"/>
<path d="M17.7853 21.7473C17.5421 21.7473 17.299 21.6543 17.1148 21.4704L11.2737 15.6445C11.0376 15.4095 10.9479 15.0721 11.0329 14.7534C11.1179 14.4346 11.3682 14.1857 11.6893 14.0949C12.6596 13.825 13.5875 13.4458 14.4493 12.9688C15.5471 12.3592 16.1869 11.98 16.5529 11.2378C16.6662 11.0074 16.8575 10.6212 16.7843 10.2071C16.6945 9.69288 16.2412 9.33224 15.7431 8.97859C14.7349 8.26198 13.571 8.06887 12.6266 8.06421H12.5581C12.3669 8.06421 12.1874 8.07352 12.0198 8.08748C11.9938 8.08748 11.9631 8.08981 11.9395 8.08981L7.26242 8.06421C6.74065 8.06189 6.32275 7.64309 6.32275 7.13122C6.32275 6.61935 6.74537 6.20288 7.26715 6.20288H21.2111C21.7329 6.20288 22.1555 6.61935 22.1555 7.13355C22.1555 7.64774 21.7329 8.06421 21.2111 8.06421H17.5988C18.0521 8.48766 18.5031 9.07631 18.6447 9.89297C18.8194 10.8981 18.4204 11.7054 18.2504 12.0521C17.6082 13.355 16.5222 13.9553 15.3748 14.5928C14.8294 14.8953 14.2627 15.1629 13.6772 15.3932L18.4606 20.1629C18.8265 20.5281 18.8242 21.1168 18.4535 21.4798C18.2693 21.6589 18.0285 21.7496 17.79 21.7496L17.7853 21.7473Z" fill="white"/>
<path d="M20.0991 12.1149H9.36138C8.83961 12.1149 8.41699 11.6985 8.41699 11.1843C8.41699 10.6701 8.83961 10.2536 9.36138 10.2536H20.0991C20.6209 10.2536 21.0435 10.6701 21.0435 11.1843C21.0435 11.6985 20.6209 12.1149 20.0991 12.1149Z" fill="white"/>
<path d="M30.5534 27.5686C35.7991 27.5686 40.0516 23.3779 40.0516 18.2085C40.0516 13.039 35.7991 8.8483 30.5534 8.8483C25.3077 8.8483 21.0552 13.039 21.0552 18.2085C21.0552 23.3779 25.3077 27.5686 30.5534 27.5686Z" fill="#FFC040"/>
<path d="M30.5534 27.5686C25.3167 27.5686 21.0552 23.369 21.0552 18.2085C21.0552 13.0479 25.3167 8.8483 30.5534 8.8483C35.7901 8.8483 40.0516 13.0479 40.0516 18.2085C40.0516 23.369 35.7901 27.5686 30.5534 27.5686ZM30.5534 10.0116C25.9684 10.0116 22.2357 13.6878 22.2357 18.2085C22.2357 22.7292 25.966 26.4053 30.5534 26.4053C35.1408 26.4053 38.8711 22.7292 38.8711 18.2085C38.8711 13.6878 35.1408 10.0116 30.5534 10.0116Z" fill="white"/>
<path d="M32.9545 22.45C32.3973 22.45 31.9275 22.2429 31.5568 21.8311C31.1979 21.4332 31.0161 20.8492 31.0161 20.0954C31.0161 19.4928 31.1743 18.9693 31.486 18.5435C31.8236 18.0805 32.317 17.8478 32.9474 17.8478C33.5188 17.8478 34.0004 18.0526 34.3758 18.4574C34.7441 18.853 34.9306 19.423 34.9306 20.1512C34.9306 20.8795 34.7417 21.4262 34.3711 21.8288C33.991 22.2406 33.514 22.45 32.9521 22.45H32.9545ZM32.9757 19.1717C32.8553 19.1717 32.7656 19.2182 32.6806 19.3276C32.6334 19.3881 32.5271 19.5905 32.5271 20.1885C32.5271 20.698 32.6239 20.8981 32.683 20.9725C32.7916 21.1098 32.8884 21.1284 32.971 21.1284C33.0961 21.1284 33.1859 21.0819 33.2709 20.9725C33.3181 20.912 33.4243 20.7096 33.4243 20.1163C33.4243 19.5998 33.3275 19.3997 33.2685 19.3276C33.1599 19.1903 33.0584 19.1717 32.9757 19.1717ZM29.1084 22.45H27.5478L32.0148 13.9693H33.5589L29.1084 22.45ZM28.1098 18.5714C27.5526 18.5714 27.0827 18.3644 26.7144 17.9572C26.3555 17.5593 26.1714 16.9753 26.1714 16.2192C26.1714 15.6189 26.3296 15.1 26.6412 14.6696C26.9788 14.2043 27.4699 13.9693 28.1003 13.9693C28.6717 13.9693 29.1509 14.174 29.5287 14.5789C29.897 14.9744 30.0835 15.5444 30.0835 16.2727C30.0835 17.0009 29.8947 17.5477 29.524 17.9502C29.1439 18.362 28.6669 18.5714 28.1098 18.5714ZM28.1239 15.2932C28.0413 15.2932 27.9421 15.3118 27.8359 15.449C27.7887 15.5095 27.6824 15.712 27.6824 16.3099C27.6824 16.8241 27.7792 17.0219 27.8382 17.094C27.9468 17.2313 28.046 17.2499 28.1263 17.2499C28.2467 17.2499 28.3364 17.2033 28.4214 17.094C28.4686 17.0335 28.5749 16.8311 28.5749 16.2378C28.5749 15.7213 28.4781 15.5212 28.419 15.4467C28.3104 15.3094 28.2089 15.2908 28.1263 15.2908L28.1239 15.2932Z" fill="white"/>
</g>
<defs>
<clipPath id="clip0_237_6244">
<rect width="43.5294" height="50" fill="white"/>
</clipPath>
</defs>
</svg>
