<svg width="19" height="21" viewBox="0 0 19 21" fill="none" xmlns="http://www.w3.org/2000/svg">
<path d="M3.93311 20.6667C3.09977 20.6667 2.39144 20.375 1.80811 19.7917C1.22477 19.2084 0.933105 18.5 0.933105 17.6667V14.6667H3.93311V0.666687L5.43311 2.16669L6.93311 0.666687L8.43311 2.16669L9.93311 0.666687L11.4331 2.16669L12.9331 0.666687L14.4331 2.16669L15.9331 0.666687L17.4331 2.16669L18.9331 0.666687V17.6667C18.9331 18.5 18.6414 19.2084 18.0581 19.7917C17.4748 20.375 16.7664 20.6667 15.9331 20.6667H3.93311ZM15.9331 18.6667C16.2164 18.6667 16.4539 18.5709 16.6456 18.3792C16.8373 18.1875 16.9331 17.95 16.9331 17.6667V3.66669H5.93311V14.6667H14.9331V17.6667C14.9331 17.95 15.0289 18.1875 15.2206 18.3792C15.4123 18.5709 15.6498 18.6667 15.9331 18.6667ZM6.93311 7.66669V5.66669H12.9331V7.66669H6.93311ZM6.93311 10.6667V8.66669H12.9331V10.6667H6.93311ZM14.9331 7.66669C14.6498 7.66669 14.4123 7.57085 14.2206 7.37919C14.0289 7.18752 13.9331 6.95002 13.9331 6.66669C13.9331 6.38335 14.0289 6.14585 14.2206 5.95419C14.4123 5.76252 14.6498 5.66669 14.9331 5.66669C15.2164 5.66669 15.4539 5.76252 15.6456 5.95419C15.8373 6.14585 15.9331 6.38335 15.9331 6.66669C15.9331 6.95002 15.8373 7.18752 15.6456 7.37919C15.4539 7.57085 15.2164 7.66669 14.9331 7.66669ZM14.9331 10.6667C14.6498 10.6667 14.4123 10.5709 14.2206 10.3792C14.0289 10.1875 13.9331 9.95002 13.9331 9.66669C13.9331 9.38335 14.0289 9.14585 14.2206 8.95419C14.4123 8.76252 14.6498 8.66669 14.9331 8.66669C15.2164 8.66669 15.4539 8.76252 15.6456 8.95419C15.8373 9.14585 15.9331 9.38335 15.9331 9.66669C15.9331 9.95002 15.8373 10.1875 15.6456 10.3792C15.4539 10.5709 15.2164 10.6667 14.9331 10.6667ZM3.93311 18.6667H12.9331V16.6667H2.93311V17.6667C2.93311 17.95 3.02894 18.1875 3.22061 18.3792C3.41227 18.5709 3.64977 18.6667 3.93311 18.6667Z" fill="#FE7F63"/>
</svg>
