<?xml version="1.0" encoding="utf-8"?>
<!-- Generator: Adobe Illustrator 27.8.1, SVG Export Plug-In . SVG Version: 6.00 Build 0)  -->
<svg version="1.1" xmlns="http://www.w3.org/2000/svg" xmlns:xlink="http://www.w3.org/1999/xlink" x="0px" y="0px"
	 viewBox="0 0 1311.27 456.19" style="enable-background:new 0 0 1311.27 456.19;" xml:space="preserve">
<style type="text/css">
	.st0{fill-rule:evenodd;clip-rule:evenodd;fill:#271E79;}
	.st1{fill-rule:evenodd;clip-rule:evenodd;fill:#00B6F0;}
	.st2{fill-rule:evenodd;clip-rule:evenodd;fill:#FFFFFF;}
</style>
<g id="Bg">
</g>
<g id="Layer_1_3_">
	<g>
		<path class="st0" d="M770.84,131.68c13.67-27.34,27.33-54.67,41-82.01C734.22-22.9,586.76-19.69,538.69,84.2
			c-12.81,27.69-12.36,58.38-0.14,90.64c19.43,51.28,55,63.29,101.83,84.53c25.04,11.35,59.49,19.49,75.32,41.86
			c18.08,25.56,6.92,57.14-35.03,62.88c-23.5,3.22-58.48-6.55-110.61-48.62c-18.38,24.04-36.76,48.07-55.14,72.11
			c175.35,152.92,337.22,19.04,299.29-99.96c-9.64-30.23-29.46-53.48-54.01-71.22c-37.98-27.43-77.64-34.87-104.11-46.41
			c-49.6-21.62-42.6-82.48,26.18-78.76C725.8,93.6,739.78,106.03,770.84,131.68z"/>
		<path class="st0" d="M859.71,0h170.03c157.28,0,145.51,215.62,74.58,215.62c84.2,0,120.75,240.56-74.58,240.56H859.71V0L859.71,0z
			 M950.91,83.24c-0.01,96.2,0,192.4,0,288.6h77.94c69.3,0,69.3-109.64,0-109.64h-32.17v-84.35h27.57
			c54.76,0,51.67-94.61-6.53-94.61H950.91z"/>
		<rect x="1215.13" class="st0" width="96.14" height="456.19"/>
		<g>
			<path class="st1" d="M225.53,451.22c124.21,0,225.52-101.31,225.52-225.52c0-124.21-101.31-225.52-225.52-225.52
				C101.31,0.18,0,101.49,0,225.7C0,349.91,101.31,451.22,225.53,451.22z"/>
			<path class="st2" d="M209.43,450.65c5.32,0.37,10.68,0.57,16.09,0.57c5.41,0,10.77-0.2,16.09-0.57v-166.7
				c25.56-7.05,44.33-30.45,44.33-58.25c0-33.37-27.05-60.42-60.42-60.42c-33.37,0-60.42,27.04-60.42,60.42
				c0,27.79,18.76,51.2,44.32,58.25V450.65z"/>
		</g>
	</g>
</g>
</svg>
