<svg width="40" height="48" viewBox="0 0 40 48" fill="none" xmlns="http://www.w3.org/2000/svg">
<path fill-rule="evenodd" clip-rule="evenodd" d="M3.49608 7.67461C5.00682 7.90704 6.05272 6.74493 7.33103 6.16388C10.5849 4.53693 16.8603 1.74787 20.3466 2.79377C21.1601 4.53693 20.6953 4.42071 18.9521 4.53693C12.5605 4.88556 8.0283 7.32598 4.30956 12.4393C2.33397 15.2283 4.30956 16.5066 5.8203 14.2986C13.0254 3.25861 29.1786 5.23419 32.4325 15.8094C33.0136 18.0174 33.246 20.4578 33.1298 22.8982C32.8974 25.8035 31.7353 27.0818 32.8974 29.0574C31.6191 29.406 31.9677 29.2898 31.3866 30.9168C30.2245 34.6355 28.1327 35.3328 28.249 37.7732C31.5029 39.2839 35.2216 31.4978 33.3622 28.9412C36.4999 28.0115 37.5458 11.9744 27.9003 6.74493C23.1357 4.07208 21.0439 5.58282 21.1601 2.79377C24.5302 2.0965 29.4111 4.88556 31.1542 6.3963C33.5946 8.6043 35.3378 11.3934 36.3837 15.3445C36.9648 17.4363 37.3134 19.4119 37.3134 21.6199C37.3134 22.3172 37.1972 24.6414 37.3134 25.1062C37.662 26.1521 38.5917 26.617 39.289 25.5711C40.4511 23.9441 40.3349 2.0965 22.6708 0.120919C18.2548 -0.343923 14.1875 0.585762 10.5849 1.98029C8.95798 2.67755 7.33103 3.37482 5.8203 4.18829C4.19335 5.00177 2.10155 5.93145 3.49608 7.67461Z" fill="black"/>
<path fill-rule="evenodd" clip-rule="evenodd" d="M15.693 23.7115C15.9254 20.6901 17.2038 19.1793 20.2252 18.9469C24.1764 18.5983 24.8737 20.109 23.944 23.7115H15.693ZM26.152 33.357C17.5524 33.357 12.0905 34.8678 14.6471 28.1275C16.8551 28.1275 24.2926 28.36 25.8033 27.8951C28.1276 26.9654 29.1735 22.7818 28.7086 19.7604C27.7789 12.9039 17.901 13.2526 14.0661 17.4362C10.9284 20.8063 8.60416 31.4976 10.3473 34.6353C11.8581 37.3082 14.7633 37.773 18.5983 37.773C23.5953 37.773 25.2223 38.3541 26.152 33.357Z" fill="black"/>
<path fill-rule="evenodd" clip-rule="evenodd" d="M17.324 48C20.113 48 22.5535 47.5351 24.8777 46.6054C25.9236 46.1406 26.737 45.6757 27.6667 45.0947C28.7126 44.5136 30.1072 43.4677 29.0613 42.4218C27.6667 41.8408 25.6911 43.5839 24.1804 44.2812C16.1619 48.3486 1.51932 43.7002 2.44901 30.5683C2.56522 29.29 3.14627 27.3144 3.14627 26.3848C3.14627 24.293 1.40311 24.1768 0.822059 26.0361C-1.15352 31.9629 0.705848 38.0058 3.4949 41.8408C5.12185 43.9326 6.28396 44.7461 9.18923 46.1406C11.9783 47.4189 13.9539 48 17.324 48Z" fill="black"/>
<path fill-rule="evenodd" clip-rule="evenodd" d="M7.56262 19.993C9.65442 19.993 9.422 18.9471 10.3517 17.2039C12.4435 13.2527 16.5108 11.2772 21.3917 11.742C24.9942 11.9744 26.9698 13.6014 28.4805 15.9256C29.8751 18.366 29.5264 19.1795 29.8751 19.8767C31.9669 23.7117 33.9425 15.9256 27.5509 11.2772C25.2267 9.6502 21.7403 8.95294 18.254 9.30157C10.9327 10.115 6.1681 17.3201 7.56262 19.993Z" fill="black"/>
<path fill-rule="evenodd" clip-rule="evenodd" d="M17.5591 41.4923C14.8863 40.3302 9.42438 40.795 7.56501 34.5196C6.05427 29.5226 9.54059 23.0148 8.37848 20.5743C5.82185 20.3419 6.05427 22.3175 5.00837 27.6632C3.49763 35.5655 6.63532 41.6085 14.5376 43.3516C16.7457 43.8165 17.9078 43.9327 17.5591 41.4923Z" fill="black"/>
<path fill-rule="evenodd" clip-rule="evenodd" d="M15.6953 23.7114H23.9463C24.876 20.1089 24.1787 18.5982 20.2275 18.9468C17.2061 19.1792 15.9277 20.6899 15.6953 23.7114Z" fill="#F3F3F3"/>
</svg>
