<svg width="42" height="48" viewBox="0 0 42 48" fill="none" xmlns="http://www.w3.org/2000/svg">
<g clip-path="url(#clip0_2775_35719)">
<path d="M41.7814 32.7624C41.7474 31.3821 41.4505 29.6332 40.2221 29.1328C39.3245 28.7665 38.4111 29.2557 38.0598 29.4455C36.2941 30.3948 32.3005 32.2889 26.0312 35.2238C26.0176 35.1836 26.0018 35.1457 25.9836 35.1055C25.4601 33.944 23.2978 33.9462 22.8898 33.9619H13.2706V33.7407C13.2706 32.758 12.33 32.3224 11.8336 32.2308L8.01449 32.2241V26.7228H0V48.0067H8.01676V39.6665L12.7334 41.5896H28.5494L41.7905 33.0796L41.7837 32.7691L41.7814 32.7624Z" fill="black"/>
<path d="M4.00691 44.8529C3.00509 44.8529 2.19141 44.051 2.19141 43.0638C2.19141 42.0765 3.00509 41.2747 4.00691 41.2747C5.00872 41.2747 5.82241 42.0765 5.82241 43.0638C5.82241 44.051 5.00872 44.8529 4.00691 44.8529ZM4.00691 42.1726C3.50827 42.1726 3.10256 42.5724 3.10256 43.0638C3.10256 43.5552 3.50827 43.955 4.00691 43.955C4.50555 43.955 4.91126 43.5552 4.91126 43.0638C4.91126 42.5724 4.50555 42.1726 4.00691 42.1726Z" fill="white"/>
<path d="M13.8227 23.6448C20.1355 23.6448 25.2529 18.6017 25.2529 12.3807C25.2529 6.15978 20.1355 1.1167 13.8227 1.1167C7.51004 1.1167 2.39258 6.15978 2.39258 12.3807C2.39258 18.6017 7.51004 23.6448 13.8227 23.6448Z" fill="black"/>
<path d="M13.8232 24.7617C6.89666 24.7617 1.25977 19.2067 1.25977 12.3808C1.25977 5.55496 6.89666 0 13.8232 0C20.7498 0 26.3867 5.55496 26.3867 12.3808C26.3867 19.2067 20.7498 24.7617 13.8232 24.7617ZM13.8232 1.1168C7.51995 1.1168 2.39304 6.1692 2.39304 12.3808C2.39304 18.5925 7.51995 23.6449 13.8232 23.6449C20.1265 23.6449 25.2534 18.5925 25.2534 12.3808C25.2534 6.1692 20.1265 1.1168 13.8232 1.1168Z" fill="white"/>
<path d="M20.3631 6.85052H6.97461L11.4646 6.87509C12.2965 6.81032 14.0916 6.79692 15.6396 7.89808C16.1382 8.25322 16.8499 8.77365 17.0018 9.65146C17.1174 10.3193 16.8522 10.8755 16.7003 11.1815C16.2176 12.1598 15.3903 12.6333 14.3091 13.2319C13.6518 13.596 12.6954 14.0516 11.4624 14.3934C13.3323 16.2584 15.1999 18.1213 17.0698 19.9863" fill="black"/>
<path d="M17.0744 20.8775C16.8409 20.8775 16.6075 20.7882 16.4307 20.6117L10.8233 15.0188C10.5966 14.7932 10.5105 14.4693 10.5921 14.1633C10.6737 13.8573 10.9139 13.6183 11.2222 13.5312C12.1537 13.2721 13.0445 12.908 13.8718 12.4501C14.9257 11.8649 15.5399 11.5009 15.8912 10.7883C16 10.5672 16.1836 10.1964 16.1134 9.79885C16.0272 9.30523 15.5921 8.95902 15.1138 8.61952C14.146 7.93157 13.0286 7.74618 12.122 7.74171H12.0563C11.8727 7.74171 11.7004 7.75065 11.5395 7.76405C11.5145 7.76405 11.4851 7.76628 11.4624 7.76628L6.9724 7.74171C6.47149 7.73948 6.07031 7.33743 6.07031 6.84604C6.07031 6.35465 6.47602 5.95483 6.97693 5.95483H20.3631C20.864 5.95483 21.2697 6.35465 21.2697 6.84827C21.2697 7.3419 20.864 7.74171 20.3631 7.74171H16.8953C17.3305 8.14823 17.7634 8.71333 17.8994 9.49732C18.0671 10.4622 17.6841 11.2373 17.5209 11.5701C16.9044 12.8209 15.8618 13.3972 14.7602 14.0092C14.2367 14.2996 13.6927 14.5564 13.1306 14.7775L17.7226 19.3564C18.0739 19.7071 18.0717 20.2722 17.7158 20.6206C17.539 20.7926 17.3078 20.8797 17.0789 20.8797L17.0744 20.8775Z" fill="white"/>
<path d="M19.2949 11.6304H8.98669C8.48579 11.6304 8.08008 11.2306 8.08008 10.7369C8.08008 10.2433 8.48579 9.84351 8.98669 9.84351H19.2949C19.7958 9.84351 20.2015 10.2433 20.2015 10.7369C20.2015 11.2306 19.7958 11.6304 19.2949 11.6304Z" fill="white"/>
<path d="M29.3314 26.4659C34.3673 26.4659 38.4497 22.4428 38.4497 17.4801C38.4497 12.5174 34.3673 8.49438 29.3314 8.49438C24.2955 8.49438 20.2131 12.5174 20.2131 17.4801C20.2131 22.4428 24.2955 26.4659 29.3314 26.4659Z" fill="black"/>
<path d="M29.3314 26.4659C24.3042 26.4659 20.2131 22.4343 20.2131 17.4801C20.2131 12.526 24.3042 8.49438 29.3314 8.49438C34.3586 8.49438 38.4497 12.526 38.4497 17.4801C38.4497 22.4343 34.3586 26.4659 29.3314 26.4659ZM29.3314 9.61118C24.9298 9.61118 21.3464 13.1403 21.3464 17.4801C21.3464 21.82 24.9275 25.3491 29.3314 25.3491C33.7353 25.3491 37.3165 21.82 37.3165 17.4801C37.3165 13.1403 33.7353 9.61118 29.3314 9.61118Z" fill="white"/>
<path d="M31.6368 21.5519C31.1019 21.5519 30.6508 21.3531 30.295 20.9577C29.9505 20.5758 29.7759 20.0151 29.7759 19.2915C29.7759 18.713 29.9278 18.2104 30.227 17.8017C30.5511 17.3572 31.0248 17.1338 31.63 17.1338C32.1785 17.1338 32.6409 17.3304 33.0012 17.719C33.3548 18.0987 33.5339 18.646 33.5339 19.3451C33.5339 20.0442 33.3525 20.5691 32.9967 20.9555C32.6318 21.3508 32.1739 21.5519 31.6345 21.5519H31.6368ZM31.6572 18.4047C31.5416 18.4047 31.4555 18.4494 31.3739 18.5544C31.3285 18.6124 31.2265 18.8068 31.2265 19.3808C31.2265 19.87 31.3195 20.0621 31.3761 20.1335C31.4804 20.2653 31.5733 20.2832 31.6526 20.2832C31.7728 20.2832 31.8589 20.2385 31.9405 20.1335C31.9858 20.0755 32.0878 19.8811 32.0878 19.3116C32.0878 18.8157 31.9949 18.6236 31.9382 18.5544C31.834 18.4226 31.7365 18.4047 31.6572 18.4047ZM27.9446 21.5519H26.4464L30.7347 13.4104H32.217L27.9446 21.5519ZM26.9858 17.8285C26.4509 17.8285 25.9999 17.6297 25.6463 17.2388C25.3018 16.8568 25.125 16.2962 25.125 15.5703C25.125 14.994 25.2769 14.4959 25.576 14.0827C25.9002 13.636 26.3716 13.4104 26.9768 13.4104C27.5253 13.4104 27.9854 13.607 28.348 13.9956C28.7016 14.3753 28.8807 14.9225 28.8807 15.6217C28.8807 16.3208 28.6993 16.8457 28.3435 17.2321C27.9786 17.6274 27.5207 17.8285 26.9858 17.8285ZM26.9994 14.6813C26.9201 14.6813 26.8249 14.6992 26.7229 14.831C26.6776 14.889 26.5756 15.0834 26.5756 15.6574C26.5756 16.151 26.6685 16.3409 26.7252 16.4101C26.8294 16.5419 26.9246 16.5598 27.0017 16.5598C27.1173 16.5598 27.2034 16.5151 27.285 16.4101C27.3303 16.352 27.4323 16.1577 27.4323 15.5882C27.4323 15.0923 27.3394 14.9002 27.2827 14.8287C27.1785 14.697 27.081 14.6791 27.0017 14.6791L26.9994 14.6813Z" fill="white"/>
</g>
<defs>
<clipPath id="clip0_2775_35719">
<rect width="41.7882" height="48" fill="white"/>
</clipPath>
</defs>
</svg>
