<svg width="36" height="36" viewBox="0 0 36 36" fill="none" xmlns="http://www.w3.org/2000/svg">
<path d="M31.5918 23.201C29.1787 20.7878 25.2659 20.7878 22.8528 23.201C20.4397 25.6141 20.4397 29.5268 22.8528 31.94C25.2659 34.3531 29.1787 34.3531 31.5918 31.94C34.0049 29.5268 34.0049 25.6141 31.5918 23.201ZM29.4363 28.3501C29.8323 28.7461 29.8323 29.3873 29.4363 29.7822C29.2383 29.9802 28.9796 30.0792 28.7197 30.0792C28.4598 30.0792 28.2011 29.9802 28.0031 29.7822L27.2246 29.0037L26.4449 29.7833C26.2469 29.9813 25.9882 30.0803 25.7283 30.0803C25.4684 30.0803 25.2097 29.9813 25.0117 29.7833C24.6157 29.3873 24.6157 28.7461 25.0117 28.3512L25.7913 27.5716L25.0117 26.792C24.6157 26.396 24.6157 25.7547 25.0117 25.3598C25.4077 24.965 26.0489 24.9638 26.4438 25.3598L27.2234 26.1395L28.0031 25.3598C28.3991 24.9638 29.0403 24.9638 29.4352 25.3598C29.8301 25.7558 29.8312 26.3971 29.4352 26.792L28.6556 27.5716L29.4363 28.3501Z" fill="#D18C8C"/>
<path d="M19.3557 27.5704C19.3557 25.4689 20.1747 23.4934 21.6608 22.0084C23.1458 20.5222 25.1213 19.7033 27.2228 19.7033C28.1273 19.7033 29.0048 19.8641 29.8339 20.1544V5.50125C29.8339 3.70575 28.3782 2.25 26.5827 2.25H5.84891C4.04891 2.25 2.59766 3.7125 2.59766 5.50125V27.0675C2.59766 28.8574 4.04778 30.3075 5.83766 30.3075H19.8529C19.5312 29.4424 19.3557 28.521 19.3557 27.5704ZM7.95041 8.25075H24.471C25.0302 8.25075 25.4835 8.70413 25.4835 9.26325C25.4835 9.82238 25.0302 10.2758 24.471 10.2758H7.95041C7.39128 10.2758 6.93791 9.82238 6.93791 9.26325C6.93791 8.70413 7.39128 8.25075 7.95041 8.25075ZM7.95041 15.264H24.471C25.0302 15.264 25.4835 15.7174 25.4835 16.2765C25.4835 16.8356 25.0302 17.289 24.471 17.289H7.95041C7.39128 17.289 6.93791 16.8356 6.93791 16.2765C6.93791 15.7174 7.39128 15.264 7.95041 15.264ZM16.9392 24.3011H7.95041C7.39128 24.3011 6.93791 23.8477 6.93791 23.2886C6.93791 22.7295 7.39128 22.2761 7.95041 22.2761H16.9392C17.4983 22.2761 17.9517 22.7295 17.9517 23.2886C17.9517 23.8477 17.4983 24.3011 16.9392 24.3011Z" fill="#D18C8C"/>
</svg>
