<svg width="48" height="40" viewBox="0 0 48 40" fill="none" xmlns="http://www.w3.org/2000/svg">
<path fill-rule="evenodd" clip-rule="evenodd" d="M23.1872 0.0491629C19.2669 0.297377 15.3451 1.8775 12.2503 4.45591C11.014 5.48596 10.3057 6.18528 9.48603 7.1854C7.58686 9.50233 6.17407 12.4199 5.5416 15.3311L5.33038 16.303L2.97147 16.3514L0.612479 16.3998L0.305776 16.7164C0.0454487 16.9852 -0.000833669 17.1024 1.12434e-05 17.4912C0.000856156 17.9332 0.0968945 18.0924 2.72016 22.0015C4.48959 24.6382 5.52884 26.1012 5.69528 26.19C5.99297 26.3489 6.32155 26.3642 6.65191 26.2346C6.93965 26.1218 7.03747 25.9843 10.0271 21.4968C12.6208 17.6032 12.6419 17.5604 12.2779 16.9247C11.9817 16.4076 11.7166 16.3514 9.57202 16.3514H7.62619L7.68393 15.9794C7.96547 14.163 9.08601 11.5892 10.4416 9.64517C13.7389 4.9168 19.9268 1.87692 25.2025 2.39359C29.8581 2.84954 33.7283 5.00658 37.2813 9.1257L37.8568 9.79286L38.3553 9.74338C39.0124 9.6783 39.3817 9.29343 39.3807 8.67488C39.3801 8.18581 39.2849 8.02728 38.2836 6.84712C35.5383 3.61113 31.5162 1.21828 27.4118 0.379405C26.4781 0.188523 24.4759 -0.02841 23.9383 0.00306475C23.7834 0.0120714 23.4454 0.0328929 23.1872 0.0491629ZM19.0976 12.8898C18.6419 13.2056 18.4644 13.7537 18.6614 14.2375C18.9252 14.8857 19.105 14.9411 21.1205 14.9956C22.8095 15.0412 22.9384 15.0581 23.3772 15.2914C23.6416 15.432 23.9802 15.7247 24.1611 15.9694L24.4796 16.3998L21.9045 16.4483C19.0183 16.5025 18.9405 16.5207 18.6614 17.2064C18.4652 17.6884 18.642 18.2384 19.0939 18.5515C19.4063 18.768 19.4646 18.7726 21.9337 18.7726C23.3202 18.7726 24.4546 18.799 24.4546 18.8312C24.4546 19.0037 23.8157 19.6818 23.4365 19.9117C23.0102 20.1703 22.9547 20.178 21.1688 20.2252C19.2288 20.2766 19.0927 20.3089 18.7604 20.7983C18.5699 21.0788 18.5787 21.6993 18.778 22.0313C19.0613 22.5033 25.1721 28.3968 25.528 28.5412C26.3209 28.8632 27.1323 28.09 26.9416 27.1943C26.8947 26.9739 26.3285 26.3612 24.6843 24.7515L22.4896 22.603L23.1201 22.4718C24.6845 22.1461 26.1639 20.8258 26.6636 19.3095L26.835 18.7892L27.8119 18.7567C28.7789 18.7244 28.7915 18.7209 29.0606 18.4102C29.4111 18.0051 29.4837 17.6864 29.324 17.2534C29.1021 16.6519 28.8 16.5014 27.7382 16.4636L26.8104 16.4304L26.6994 16.0762C26.6383 15.8813 26.5088 15.5585 26.4114 15.3588L26.2344 14.9956L27.3864 14.9952C28.3707 14.9949 28.5829 14.9668 28.8447 14.8022C29.4978 14.3914 29.5933 13.5427 29.0474 13.003L28.7608 12.7197L24.0905 12.6929L19.4203 12.6662L19.0976 12.8898ZM41.1934 13.882C41.0828 13.9619 39.7804 15.8403 38.299 18.0562C35.3585 22.4551 35.3308 22.5099 35.7383 23.1291C36.1026 23.6829 36.2209 23.7087 38.4065 23.7102L40.3889 23.7117L40.2578 24.297C39.1173 29.3901 35.7121 33.6555 30.912 36.0043C26.4165 38.2041 22.0144 38.2865 17.5121 36.2553C14.996 35.12 12.9232 33.5097 10.7467 30.9993C10.1934 30.361 10.1055 30.2971 9.78128 30.2971C9.02743 30.2971 8.52292 30.8507 8.61709 31.5745C8.738 32.5044 11.6078 35.3929 13.9401 36.9321C16.1047 38.3606 18.8801 39.4393 21.4312 39.8439C22.7415 40.0515 25.1143 40.0522 26.4261 39.8451C34.098 38.6341 40.5413 32.6936 42.3028 25.2071C42.4649 24.5178 42.6119 23.8993 42.6295 23.8327C42.6538 23.7401 43.1938 23.7117 44.9263 23.7117C46.8927 23.7117 47.227 23.6899 47.4625 23.5464C47.8117 23.3336 48.0535 22.811 47.9898 22.4064C47.9355 22.0606 42.9392 14.4513 42.4722 14.0029C42.1515 13.6951 41.5331 13.6366 41.1934 13.882Z" fill="black"/>
</svg>
