<svg width="48" height="48" viewBox="0 0 48 48" fill="none" xmlns="http://www.w3.org/2000/svg">
<g clip-path="url(#clip0_2775_35736)">
<path d="M29.1562 26.8125C36.1351 26.8125 41.8125 21.1351 41.8125 14.1562C41.8125 7.17737 36.1351 1.5 29.1562 1.5C22.1774 1.5 16.5 7.17737 16.5 14.1562C16.5 21.1351 22.1774 26.8125 29.1562 26.8125Z" fill="black"/>
<path d="M30.8687 24L23.5833 16.4167V14.25H27.375C28.3319 14.25 29.158 13.9385 29.8531 13.3156C30.5483 12.6927 30.9681 11.9208 31.1125 11H22.5V8.83333H30.7875C30.4806 8.20139 30.0247 7.68229 29.4198 7.27604C28.8149 6.86979 28.1333 6.66667 27.375 6.66667H22.5V4.5H35.5V6.66667H31.9792C32.2319 6.97361 32.4576 7.30764 32.6562 7.66875C32.8549 8.02986 33.0083 8.41806 33.1167 8.83333H35.5V11H33.3062C33.1618 12.5347 32.5299 13.8212 31.4104 14.8594C30.291 15.8976 28.9458 16.4167 27.375 16.4167H26.5896L33.875 24H30.8687Z" fill="white"/>
<path d="M46.3605 28.6234C45.3717 28.2341 44.2456 28.489 43.5205 29.2654C43.5319 29.2537 40.7585 32.1321 36.4592 36.7123C35.7843 37.4718 34.8563 37.9219 33.8438 38.0061C33.568 38.0984 22.7439 38.0625 22.4531 38.0625C21.6654 38.0625 21.0469 37.4436 21.0469 36.6562C21.0469 35.8685 21.6654 35.25 22.4531 35.25H32.4375C33.991 35.25 35.25 33.9906 35.25 32.4375C35.25 30.884 33.991 29.625 32.4375 29.625H24.5343L23.4657 28.6967C19.7391 25.4601 14.1984 25.4601 10.4718 28.6967L9.4032 29.625H1.40625C0.629517 29.625 0 30.2545 0 31.0312V42.2812C0 43.058 0.629517 43.6875 1.40625 43.6875H9.74048C10.5 43.9124 11.2592 44.25 12.0751 44.5876C14.1562 45.4874 16.519 46.5 19.8937 46.5H33.8438C36.0571 46.5 38.1409 45.4581 39.4688 43.6875L47.1562 33.5625C47.7188 32.8312 48 31.9592 48 31.0312C47.9996 29.9674 47.3492 29.0131 46.3605 28.6234Z" fill="black"/>
</g>
<defs>
<clipPath id="clip0_2775_35736">
<rect width="48" height="48" fill="white"/>
</clipPath>
</defs>
</svg>
