<svg width="43" height="40" viewBox="0 0 43 40" fill="none" xmlns="http://www.w3.org/2000/svg">
<path d="M4.44444 40C3.22222 40 2.17593 39.5648 1.30556 38.6944C0.435185 37.8241 0 36.7778 0 35.5556V4.44444C0 3.22222 0.435185 2.17593 1.30556 1.30556C2.17593 0.435185 3.22222 0 4.44444 0H35.5556C36.7778 0 37.8241 0.435185 38.6944 1.30556C39.5648 2.17593 40 3.22222 40 4.44444H22.2222C19.5926 4.44444 17.4537 5.26852 15.8056 6.91667C14.1574 8.56482 13.3333 10.7037 13.3333 13.3333V26.6667C13.3333 29.2963 14.1574 31.4352 15.8056 33.0833C17.4537 34.7315 19.5926 35.5556 22.2222 35.5556H40C40 36.7778 39.5648 37.8241 38.6944 38.6944C37.8241 39.5648 36.7778 40 35.5556 40H4.44444ZM22.2222 31.1111C21 31.1111 19.9537 30.6759 19.0833 29.8056C18.213 28.9352 17.7778 27.8889 17.7778 26.6667V13.3333C17.7778 12.1111 18.213 11.0648 19.0833 10.1944C19.9537 9.32407 21 8.88889 22.2222 8.88889H37.7778C39 8.88889 40.0463 9.32407 40.9167 10.1944C41.787 11.0648 42.2222 12.1111 42.2222 13.3333V26.6667C42.2222 27.8889 41.787 28.9352 40.9167 29.8056C40.0463 30.6759 39 31.1111 37.7778 31.1111H22.2222ZM28.8889 23.3333C29.8519 23.3333 30.6481 23.0185 31.2778 22.3889C31.9074 21.7593 32.2222 20.963 32.2222 20C32.2222 19.037 31.9074 18.2407 31.2778 17.6111C30.6481 16.9815 29.8519 16.6667 28.8889 16.6667C27.9259 16.6667 27.1296 16.9815 26.5 17.6111C25.8704 18.2407 25.5556 19.037 25.5556 20C25.5556 20.963 25.8704 21.7593 26.5 22.3889C27.1296 23.0185 27.9259 23.3333 28.8889 23.3333Z" fill="black"/>
</svg>
