<svg width="36" height="36" viewBox="0 0 36 36" fill="none" xmlns="http://www.w3.org/2000/svg">
<path d="M20.2492 6.75C19.361 6.75114 18.4752 6.83969 17.6043 7.01438C18.0708 8.48757 18.1237 10.0606 17.7573 11.5618C17.3909 13.063 16.6193 14.4347 15.5266 15.5274C14.4339 16.62 13.0622 17.3917 11.561 17.7581C10.0598 18.1245 8.48678 18.0716 7.01358 17.6051C6.46822 20.3348 6.78001 23.1663 7.90624 25.712C9.03247 28.2576 10.9181 30.3928 13.3048 31.8253C15.6916 33.2578 18.4628 33.9174 21.239 33.7139C24.0152 33.5103 26.6606 32.4536 28.8129 30.6884C30.9653 28.9231 32.5193 26.5357 33.2623 23.8531C34.0052 21.1704 33.9007 18.3237 32.9631 15.7027C32.0254 13.0818 30.3005 10.8147 28.0246 9.21204C25.7486 7.60937 23.0328 6.74943 20.2492 6.75ZM26.9992 21.375H20.2492C19.9508 21.375 19.6647 21.2565 19.4537 21.0455C19.2427 20.8345 19.1242 20.5484 19.1242 20.25V13.5C19.1242 13.2016 19.2427 12.9155 19.4537 12.7045C19.6647 12.4935 19.9508 12.375 20.2492 12.375C20.5476 12.375 20.8337 12.4935 21.0447 12.7045C21.2557 12.9155 21.3742 13.2016 21.3742 13.5V19.125H26.9992C27.2976 19.125 27.5837 19.2435 27.7947 19.4545C28.0057 19.6655 28.1242 19.9516 28.1242 20.25C28.1242 20.5484 28.0057 20.8345 27.7947 21.0455C27.5837 21.2565 27.2976 21.375 26.9992 21.375Z" fill="#E6A070"/>
<path d="M16.875 9.5625C16.875 8.11623 16.4461 6.70243 15.6426 5.4999C14.8391 4.29736 13.6971 3.3601 12.3609 2.80663C11.0247 2.25317 9.55439 2.10836 8.13591 2.39051C6.71742 2.67267 5.41446 3.36911 4.39179 4.39179C3.36911 5.41446 2.67267 6.71742 2.39051 8.13591C2.10836 9.55439 2.25317 11.0247 2.80663 12.3609C3.3601 13.6971 4.29736 14.8391 5.4999 15.6426C6.70243 16.4461 8.11623 16.875 9.5625 16.875C11.5012 16.8726 13.3597 16.1014 14.7306 14.7306C16.1014 13.3597 16.8726 11.5012 16.875 9.5625ZM8.4375 6.75C8.4375 6.45163 8.55603 6.16549 8.76701 5.95451C8.97799 5.74353 9.26413 5.625 9.5625 5.625C9.86087 5.625 10.147 5.74353 10.358 5.95451C10.569 6.16549 10.6875 6.45163 10.6875 6.75V9C10.6875 9.29837 10.569 9.58452 10.358 9.7955C10.147 10.0065 9.86087 10.125 9.5625 10.125C9.26413 10.125 8.97799 10.0065 8.76701 9.7955C8.55603 9.58452 8.4375 9.29837 8.4375 9V6.75ZM8.4375 12.375C8.4375 12.1525 8.50348 11.935 8.6271 11.75C8.75072 11.565 8.92642 11.4208 9.13198 11.3356C9.33755 11.2505 9.56375 11.2282 9.78198 11.2716C10.0002 11.315 10.2007 11.4222 10.358 11.5795C10.5153 11.7368 10.6225 11.9373 10.6659 12.1555C10.7093 12.3738 10.687 12.6 10.6019 12.8055C10.5167 13.0111 10.3725 13.1868 10.1875 13.3104C10.0025 13.434 9.78501 13.5 9.5625 13.5C9.26413 13.5 8.97799 13.3815 8.76701 13.1705C8.55603 12.9595 8.4375 12.6734 8.4375 12.375Z" fill="#E6A070"/>
</svg>
