<svg width="36" height="36" viewBox="0 0 36 36" fill="none" xmlns="http://www.w3.org/2000/svg">
<path d="M21.0938 20.5312H14.9062C14.2849 20.5312 13.7812 21.0349 13.7812 21.6562V32.3438C13.7812 32.9651 14.2849 33.4688 14.9062 33.4688H21.0938C21.7151 33.4688 22.2188 32.9651 22.2188 32.3438V21.6562C22.2188 21.0349 21.7151 20.5312 21.0938 20.5312Z" fill="#87B87F"/>
<path d="M10.9688 23.9062H4.78125C4.15993 23.9062 3.65625 24.4099 3.65625 25.0312V32.3438C3.65625 32.9651 4.15993 33.4688 4.78125 33.4688H10.9688C11.5901 33.4688 12.0938 32.9651 12.0938 32.3438V25.0312C12.0938 24.4099 11.5901 23.9062 10.9688 23.9062Z" fill="#87B87F"/>
<path d="M31.2188 13.7812H25.0312C24.4099 13.7812 23.9062 14.2849 23.9062 14.9062V32.3438C23.9062 32.9651 24.4099 33.4688 25.0312 33.4688H31.2188C31.8401 33.4688 32.3438 32.9651 32.3438 32.3438V14.9062C32.3438 14.2849 31.8401 13.7812 31.2188 13.7812Z" fill="#87B87F"/>
<path d="M27.4978 3.13668L26.6637 5.08375C26.6111 5.20665 26.5235 5.31141 26.4119 5.38503C26.3003 5.45866 26.1696 5.49791 26.0359 5.49792H24.3101C24.175 5.49796 24.0429 5.53807 23.9305 5.61318C23.8182 5.68829 23.7306 5.79503 23.6789 5.91989C23.6272 6.04476 23.6137 6.18215 23.6401 6.31469C23.6665 6.44723 23.7316 6.56898 23.8271 6.66454L25.1199 7.95778C25.2033 8.04124 25.2637 8.14487 25.2952 8.25859C25.3267 8.37232 25.3282 8.49225 25.2996 8.60673L24.6887 11.0514C24.6562 11.1812 24.6626 11.3178 24.707 11.4441C24.7515 11.5704 24.8321 11.6808 24.9388 11.7617C25.0455 11.8426 25.1736 11.8903 25.3072 11.899C25.4408 11.9076 25.574 11.8768 25.6903 11.8104L27.7868 10.6119C27.89 10.5529 28.0068 10.5219 28.1257 10.5219C28.2446 10.5219 28.3614 10.5529 28.4646 10.6119L30.5612 11.8104C30.6774 11.8768 30.8106 11.9076 30.9442 11.899C31.0778 11.8903 31.2059 11.8426 31.3127 11.7617C31.4194 11.6808 31.5 11.5704 31.5444 11.4441C31.5889 11.3178 31.5952 11.1812 31.5627 11.0514L30.9519 8.60673C30.9233 8.49225 30.9248 8.37232 30.9563 8.25859C30.9877 8.14487 31.0481 8.04124 31.1315 7.95778L32.4243 6.66448C32.5198 6.56891 32.5849 6.44717 32.6112 6.31463C32.6376 6.1821 32.6241 6.04472 32.5724 5.91987C32.5207 5.79502 32.4331 5.68829 32.3208 5.61319C32.2085 5.53808 32.0764 5.49796 31.9412 5.49791H30.2155C30.0818 5.49789 29.951 5.45864 29.8394 5.38502C29.7278 5.3114 29.6403 5.20664 29.5876 5.08374L28.7535 3.13667C28.7009 3.01376 28.6134 2.90901 28.5017 2.83539C28.3901 2.76177 28.2594 2.72253 28.1257 2.72253C27.992 2.72254 27.8612 2.76178 27.7496 2.8354C27.638 2.90902 27.5505 3.01377 27.4978 3.13668Z" fill="#87B87F"/>
<path d="M6.75048 19.1244C6.51431 19.1246 6.28407 19.0505 6.0924 18.9125C5.90073 18.7745 5.75735 18.5797 5.68259 18.3557C5.60784 18.1316 5.60549 17.8898 5.67589 17.6643C5.74629 17.4389 5.88586 17.2413 6.07482 17.0997L9.8997 14.2306C10.2902 13.9403 10.7639 13.7837 11.2505 13.784C11.737 13.7843 12.2105 13.9415 12.6007 14.2322L13.4351 14.8573L18.3718 10.4134C18.5936 10.2136 18.8857 10.1102 19.1838 10.1258C19.4819 10.1414 19.7615 10.2748 19.9613 10.4966C20.161 10.7184 20.2644 11.0105 20.2488 11.3086C20.2332 11.6066 20.0998 11.8863 19.878 12.086L14.9408 16.53C14.5266 16.9014 13.9898 17.1067 13.4335 17.1063C12.9473 17.1078 12.4739 16.9504 12.0854 16.658L11.2499 16.0318L7.42504 18.8998C7.23063 19.0461 6.99379 19.125 6.75048 19.1244Z" fill="#87B87F"/>
<path d="M19.125 15.75C18.8268 15.7496 18.5408 15.631 18.3299 15.4201C18.119 15.2092 18.0004 14.9232 18 14.625V12.375H15.75C15.4516 12.375 15.1655 12.2565 14.9545 12.0455C14.7435 11.8345 14.625 11.5484 14.625 11.25C14.625 10.9516 14.7435 10.6655 14.9545 10.4545C15.1655 10.2435 15.4516 10.125 15.75 10.125H19.125C19.4232 10.1254 19.7092 10.244 19.9201 10.4549C20.131 10.6658 20.2496 10.9518 20.25 11.25V14.625C20.2496 14.9232 20.131 15.2092 19.9201 15.4201C19.7092 15.631 19.4232 15.7496 19.125 15.75Z" fill="#87B87F"/>
</svg>
