<svg width="50" height="48" viewBox="0 0 50 48" fill="none" xmlns="http://www.w3.org/2000/svg">
<g clip-path="url(#clip0_2775_35703)">
<rect x="5.81836" y="9.43115" width="41.3361" height="33.3096" fill="white"/>
<path d="M42.8391 48H8.30746C5.90756 48 3.95312 46.0476 3.95312 43.6457V9.11202C3.95312 6.71212 5.90555 4.75769 8.30746 4.75769H42.8411C45.241 4.75769 47.1955 6.71012 47.1955 9.11202V16.9498H29.6638C28.5902 16.9498 27.7174 17.8227 27.7174 18.8962V33.8615C27.7174 34.935 28.5902 35.8079 29.6638 35.8079H47.1955V43.6457C47.1955 46.0456 45.243 48 42.8411 48H42.8391ZM8.30746 7.16762C7.23392 7.16762 6.36105 8.0405 6.36105 9.11403V43.6477C6.36105 44.7212 7.23392 45.5941 8.30746 45.5941H42.8411C43.9147 45.5941 44.7875 44.7212 44.7875 43.6477V38.2178H29.6638C27.2639 38.2178 25.3094 36.2654 25.3094 33.8635V18.8982C25.3094 16.4983 27.2619 14.5439 29.6638 14.5439H44.7875V9.11403C44.7875 8.0405 43.9147 7.16762 42.8411 7.16762H8.30746Z" fill="white"/>
<path d="M25.3077 33.8614V18.8961C25.3077 16.4962 27.2601 14.5418 29.662 14.5418H44.7858V9.11193C44.7858 8.0384 43.9129 7.16553 42.8394 7.16553H8.30774C7.2342 7.16553 6.36133 8.0384 6.36133 9.11193V43.6456C6.36133 44.7191 7.2342 45.592 8.30774 45.592H42.8414C43.9149 45.592 44.7878 44.7191 44.7878 43.6456V38.2157H29.664C27.2641 38.2157 25.3097 36.2633 25.3097 33.8614H25.3077Z" fill="black"/>
<path d="M45.5023 35.5028H31.733C29.7424 35.5028 28.1211 33.8815 28.1211 31.8909V20.9268C28.1211 18.9343 29.7424 17.3149 31.733 17.3149H45.5023C47.4929 17.3149 49.1142 18.9343 49.1142 20.9268V31.8909C49.1142 33.8815 47.4929 35.5028 45.5023 35.5028Z" fill="black"/>
<path d="M36.4644 30.721C34.0485 30.721 32.084 28.7566 32.084 26.3406C32.084 23.9247 34.0485 21.9602 36.4644 21.9602C38.8804 21.9602 40.8448 23.9247 40.8448 26.3406C40.8448 28.7566 38.8804 30.721 36.4644 30.721ZM36.4644 24.3681C35.3768 24.3681 34.4919 25.253 34.4919 26.3406C34.4919 27.4282 35.3768 28.3131 36.4644 28.3131C37.552 28.3131 38.4369 27.4282 38.4369 26.3406C38.4369 25.253 37.552 24.3681 36.4644 24.3681Z" fill="white"/>
<path d="M12.1844 21.9603C17.5836 21.9603 21.9606 17.5834 21.9606 12.1841C21.9606 6.7849 17.5836 2.40796 12.1844 2.40796C6.78515 2.40796 2.4082 6.7849 2.4082 12.1841C2.4082 17.5834 6.78515 21.9603 12.1844 21.9603Z" fill="black"/>
<path d="M12.1841 24.3682C5.46599 24.3682 0 18.9022 0 12.1841C0 5.46599 5.46599 0 12.1841 0C18.9022 0 24.3682 5.46599 24.3682 12.1841C24.3682 18.9022 18.9022 24.3682 12.1841 24.3682ZM12.1841 2.40793C6.79436 2.40793 2.40793 6.79436 2.40793 12.1841C2.40793 17.5738 6.79436 21.9603 12.1841 21.9603C17.5738 21.9603 21.9603 17.5738 21.9603 12.1841C21.9603 6.79436 17.5738 2.40793 12.1841 2.40793Z" fill="white"/>
<path d="M17.5795 13.3882H6.78599C6.12181 13.3882 5.58203 12.8484 5.58203 12.1842C5.58203 11.52 6.12181 10.9802 6.78599 10.9802H17.5795C18.2437 10.9802 18.7835 11.52 18.7835 12.1842C18.7835 12.8484 18.2437 13.3882 17.5795 13.3882Z" fill="white"/>
<path d="M12.1844 18.7837C11.5202 18.7837 10.9805 18.244 10.9805 17.5798V6.78624C10.9805 6.12205 11.5202 5.58228 12.1844 5.58228C12.8486 5.58228 13.3884 6.12205 13.3884 6.78624V17.5798C13.3884 18.244 12.8486 18.7837 12.1844 18.7837Z" fill="white"/>
</g>
<defs>
<clipPath id="clip0_2775_35703">
<rect width="49.1137" height="48" fill="white"/>
</clipPath>
</defs>
</svg>
