<svg xmlns="http://www.w3.org/2000/svg" width="36" height="31.5" viewBox="0 0 36 31.5">
  <path id="Icon_awesome-list-ol" data-name="Icon awesome-list-ol" d="M4.343,28.2l1.23-1.417a1.4,1.4,0,0,0,.356-1v-.233a.713.713,0,0,0-.8-.8H1.125a.563.563,0,0,0-.562.563v1.125A.563.563,0,0,0,1.125,27H2.73a11.068,11.068,0,0,0-.773.866l-.394.492a.935.935,0,0,0-.2,1.046l.074.136a.856.856,0,0,0,.861.554h.333c.726,0,1.121.172,1.121.639,0,.332-.3.578-1.01.578a2.921,2.921,0,0,1-1.088-.219c-.456-.273-.825-.246-1.1.219l-.393.655a.757.757,0,0,0,.185,1.121,5.049,5.049,0,0,0,2.6.664,3.082,3.082,0,0,0,3.41-3.1A2.542,2.542,0,0,0,4.343,28.2ZM34.875,15.75h-22.5a1.125,1.125,0,0,0-1.125,1.125v2.25a1.125,1.125,0,0,0,1.125,1.125h22.5A1.125,1.125,0,0,0,36,19.125v-2.25A1.125,1.125,0,0,0,34.875,15.75Zm0-11.25h-22.5A1.125,1.125,0,0,0,11.25,5.625v2.25A1.125,1.125,0,0,0,12.375,9h22.5A1.125,1.125,0,0,0,36,7.875V5.625A1.125,1.125,0,0,0,34.875,4.5Zm0,22.5h-22.5a1.125,1.125,0,0,0-1.125,1.125v2.25A1.125,1.125,0,0,0,12.375,31.5h22.5A1.125,1.125,0,0,0,36,30.375v-2.25A1.125,1.125,0,0,0,34.875,27ZM1.125,11.25h4.5a.562.562,0,0,0,.563-.562V9.563A.562.562,0,0,0,5.625,9H4.5V2.813a.562.562,0,0,0-.562-.562H2.25a.563.563,0,0,0-.5.311L1.185,3.686a.563.563,0,0,0,.5.814H2.25V9H1.125a.562.562,0,0,0-.562.563v1.125a.562.562,0,0,0,.562.563ZM.85,22.5H5.625a.563.563,0,0,0,.563-.562V20.813a.563.563,0,0,0-.562-.562H2.905c.231-.724,3.4-1.313,3.4-3.968A2.847,2.847,0,0,0,3.177,13.5,3.409,3.409,0,0,0,.333,14.818a.7.7,0,0,0,.2,1.081l.6.484c.394.321.773.174,1.133-.172a.945.945,0,0,1,.665-.27.6.6,0,0,1,.652.615c0,.894-3.584,1.536-3.584,4.86V21.7A.769.769,0,0,0,.85,22.5Z" transform="translate(0 -2.25)" fill="#2065d1"/>
</svg>
