<svg xmlns="http://www.w3.org/2000/svg" width="23.846" height="33.042" viewBox="0 0 23.846 33.042">
  <path id="Icon_weather-raindrops" data-name="Icon weather-raindrops" d="M13.212,22.667a6.472,6.472,0,0,1,1.138-3.026,22.989,22.989,0,0,1,2.187-3.116c.18-.21.419-.509.689-.839s.449-.509.479-.539l1.108,1.288a17.472,17.472,0,0,1,2.277,3.205,6.613,6.613,0,0,1,1.048,3.026,4.34,4.34,0,0,1-1.288,3.175,4.2,4.2,0,0,1-3.145,1.318,4.367,4.367,0,0,1-3.175-1.318A4.417,4.417,0,0,1,13.212,22.667ZM22.559,35.1a8.118,8.118,0,0,1,.719-3.026,14.992,14.992,0,0,1,1.8-3.175A40.515,40.515,0,0,1,29,24.314a9.252,9.252,0,0,0,.779-.719l.749.719a39.515,39.515,0,0,1,3.954,4.553A14.58,14.58,0,0,1,36.339,32.1a7.859,7.859,0,0,1,.719,3,7.163,7.163,0,0,1-7.28,7.28,7.161,7.161,0,0,1-7.22-7.28Zm4.553-20.67c0-1.288.989-3,3-5.093l.749.839a12.073,12.073,0,0,1,1.528,2.217,4.521,4.521,0,0,1,.689,2.037A2.781,2.781,0,0,1,32.2,16.5a2.942,2.942,0,0,1-2.1.839,2.869,2.869,0,0,1-3-2.906Z" transform="translate(-13.212 -9.336)" fill="#2065d1"/>
</svg>
