<?xml version="1.0" encoding="UTF-8"?><svg id="Layer_1" xmlns="http://www.w3.org/2000/svg" viewBox="0 0 197.17 56.48"><g><path d="m24.29,39.68c0-2.37,4.51-11.81,4.51-12.57,0-.07-.06-.21-.13-.21-.72,0-7.63,6.92-9.31,8.45-4.62,4.47-6.61,7.2-8.47,7.2-1.14,0-1.74-1.05-1.74-1.95,0-1.68,1.32-4.96,1.86-6.5h-.12c-.36.35-2.22,2.31-2.53,2.31s-.3-2.8-.3-3.98c0-1.47.66-2.17,1.98-3.35.72-.63,6.49-6.57,7.21-9.99.24-.98.54-1.4.84-1.4h5.11c-1.26,3.28-4.08,9.99-4.08,10.34,0,.14.12.21.3.21.66,0,11.23-10.97,14.3-10.97.77,0,1.38.12,1.85.33-3.34-4.61-8.76-7.62-14.89-7.62C10.53,9.97,2.29,18.2,2.29,28.36s8.24,18.4,18.4,18.4c6.41,0,12.05-3.29,15.35-8.26-2.71,1.98-6.3,4.05-8.26,4.05-2.1,0-3.49-.84-3.49-2.86Z" style="fill:#00ab55;"/><path d="m36.89,19.67c0,.06.01.12.01.18,0,2.37-5.83,13.55-5.83,15.3,0,.35.06.7.3.7,1.5,0,6.73-4.94,7.61-5.69.06-.59.09-1.18.09-1.78,0-3.15-.79-6.11-2.19-8.7Z" style="fill:#00ab55;"/><path d="m80.07,22.78c-.52-4.72-3.3-7.47-6.49-7.47-6.08,0-12.71,4.97-13.82,15.34-.28.31-.65.74-1.15,1.22-1.38,1.26-6.79,5.38-10.57,5.38-1.5,0-3.06-1.33-3.06-2.45,0-.63.48-.77,1.5-.77,2.1,0,12.67-4.05,12.67-11.04,0-4.75-2.28-6.15-5.28-6.15-6.25,0-14.78,6.01-14.78,13.97v3.28c0,6.15,3.25,8.45,7.75,8.45,5.11,0,9.73-3.07,12.73-5.94.09-.1.17-.19.25-.28.76,3.98,3.32,6.22,6.98,6.22,4.44,0,7.03-1.75,9.91-5.59,3.36-6.67,3.79-10.27,3.36-14.18Zm-28.07-.91c1.02,0,1.51.84,1.51,2.02,0,3-6.67,5.66-8.9,5.8.9-3.28,4.27-7.82,7.39-7.82Zm20.32,12.22c-1.2,2.21-2.53,2.59-3.73,2.59-1.99,0-3.25-1.05-3.25-4.26,0-6.36,4.03-10.83,6.67-10.83,1.98,0,2.34,1.57,2.64,2.72.72,2.75-.83,7.08-2.34,9.78Z" style="fill:#00ab55;"/></g><g><path d="m88.48,19.73c.9-.66,1.99-.99,3.28-.99,1.42,0,2.58.39,3.46,1.17s1.59,1.69,2.11,2.73l2.08-1.35c-.38-.87-.91-1.67-1.59-2.39-.68-.73-1.51-1.32-2.5-1.77s-2.13-.68-3.41-.68c-1.22,0-2.39.24-3.51.73s-2.06,1.2-2.81,2.13c-.75.94-1.14,2.08-1.17,3.43-.07,1.35.17,2.45.73,3.28s1.29,1.52,2.21,2.06c.92.54,1.88.98,2.89,1.33.87.31,1.7.69,2.5,1.12s1.44.97,1.93,1.61.69,1.43.62,2.37c-.07,1.28-.59,2.34-1.56,3.17s-2.19,1.25-3.64,1.25c-1.22,0-2.24-.24-3.07-.73-.83-.49-1.52-1.11-2.06-1.87-.54-.76-.96-1.6-1.27-2.5l-2.24,1.2c.28,1.04.76,2.05,1.46,3.02.69.97,1.62,1.77,2.78,2.39,1.16.62,2.56.94,4.19.94,1.49,0,2.84-.31,4.03-.94s2.16-1.48,2.89-2.58,1.11-2.32,1.15-3.67c.07-1.35-.19-2.46-.78-3.33-.59-.87-1.36-1.58-2.32-2.13-.95-.55-1.99-1.06-3.1-1.51-.94-.35-1.77-.71-2.5-1.09s-1.3-.86-1.72-1.43-.59-1.33-.52-2.26c.07-1.15.55-2.05,1.46-2.71Z"/><path d="m123.07,18.12c-1.48-1.15-3.32-1.72-5.54-1.72-1.6.03-3.07.39-4.43,1.07-1.35.68-2.55,1.61-3.59,2.78-.55.62-1.03,1.29-1.47,1.99l.9-5.32h-2.6l-6.14,35.4,2.76-.05,2.96-17.47c.22.92.53,1.78.94,2.58.62,1.22,1.48,2.19,2.58,2.92,1.09.73,2.46,1.09,4.09,1.09,2.22,0,4.27-.55,6.14-1.64,1.87-1.09,3.43-2.59,4.68-4.48,1.25-1.89,2.05-4.02,2.39-6.38.31-2.19.15-4.24-.5-6.17-.64-1.93-1.7-3.46-3.17-4.61Zm1.07,10.77c-.31,1.87-.98,3.56-2,5.05-1.02,1.49-2.29,2.68-3.8,3.57-1.51.89-3.15,1.31-4.92,1.27-1.22,0-2.27-.29-3.17-.86-.9-.57-1.62-1.34-2.16-2.29-.54-.95-.91-2.01-1.12-3.18-.21-1.15-.22-2.33-.05-3.54l.05-.32c.19-1.18.56-2.32,1.12-3.41.61-1.18,1.36-2.25,2.26-3.2.9-.95,1.93-1.7,3.07-2.24,1.15-.54,2.33-.81,3.54-.81,1.77,0,3.23.46,4.37,1.38,1.15.92,1.95,2.13,2.42,3.64.47,1.51.6,3.15.39,4.92Z"/><path d="m142.67,16.4c-1.49,0-2.8.49-3.93,1.48-.7.62-1.32,1.35-1.87,2.16l.54-3.12h-2.71l-4.16,23.95h2.71l2.66-15.28c.21-.92.49-1.84.88-2.76.49-1.13,1.13-2.06,1.93-2.81.8-.75,1.8-1.1,3.02-1.07.55,0,1.05.1,1.48.31.43.21.89.47,1.38.78l1.82-2.13c-.56-.45-1.14-.82-1.74-1.09-.61-.28-1.28-.42-2.01-.42Z"/><path d="m154.59,4.17c-.56,0-1.01.19-1.35.57-.35.38-.52.83-.52,1.35s.17.96.52,1.33c.35.36.8.55,1.35.55s1.01-.18,1.38-.55.55-.81.55-1.33-.18-.97-.55-1.35c-.36-.38-.82-.57-1.38-.57Z"/><polygon points="147.41 40.86 150.06 40.86 154.18 16.92 151.42 16.92 147.41 40.86"/><path d="m176.61,17.62c-.97-.82-2.29-1.22-3.96-1.22-1.84,0-3.45.49-4.82,1.48-1.37.99-2.46,2.25-3.25,3.77l.73-4.74h-2.71l-4.16,23.95h2.71l2.66-14.89c.21-1.28.68-2.45,1.43-3.49s1.68-1.89,2.81-2.55c1.13-.66,2.37-.99,3.72-.99,1.28,0,2.26.3,2.92.91.66.61,1.08,1.41,1.27,2.39s.22,2.06.08,3.2l-2.6,15.41h2.6l2.71-15.72c.21-1.53.15-2.96-.18-4.29-.33-1.34-.98-2.41-1.95-3.23Z"/><polygon points="194.88 16.92 191 16.92 192.44 8.59 189.73 8.59 188.32 16.92 184.63 16.92 184.11 19.47 187.89 19.47 184.26 40.86 186.86 40.86 190.56 19.47 194.36 19.47 194.88 16.92"/></g></svg>