<?xml version="1.0" encoding="UTF-8"?><svg id="Layer_1" xmlns="http://www.w3.org/2000/svg" viewBox="0 0 130.61 37.31"><path d="m22.26,8.89v1.4c0,.84-.68,1.52-1.52,1.52h-5.23c-.19,0-.35.16-.35.35v17.98c0,.84-.68,1.52-1.52,1.52h-1.5c-.84,0-1.52-.68-1.52-1.52V12.16c0-.19-.16-.35-.35-.35h-5.23c-.84,0-1.52-.68-1.52-1.52v-1.4c0-.84.68-1.52,1.52-1.52h15.69c.84,0,1.52.68,1.52,1.52Z"/><path d="m64.72,29.52c.26.59.13,1.27-.36,1.73-.29.28-.69.41-1.09.41h-1.39c-.62,0-1.17-.37-1.41-.94l-.97-2.34c-.05-.13-.18-.21-.31-.21h-9.94c-.14,0-.26.08-.31.21l-.97,2.34c-.24.57-.79.94-1.41.94h-1.39c-.4,0-.8-.13-1.1-.41-.49-.46-.62-1.14-.36-1.73l9.81-21.7c.12-.27.39-.44.69-.44s.56.17.69.44l9.81,21.7Zm-7.18-5.82l-3.15-7.27c-.07-.17-.31-.17-.39,0l-3.11,7.27c-.06.14.04.29.19.29h6.26c.15,0,.25-.15.19-.29Z"/><path d="m88.87,7.95l2.12,22.07c.04.42-.1.83-.38,1.14-.28.31-.68.49-1.1.49h-1.41c-.76,0-1.4-.57-1.48-1.33l-1.11-10.8c-.03-.33-.46-.43-.64-.15l-5.46,8.51c-.24.37-.84.37-1.08,0l-5.46-8.52c-.18-.28-.6-.18-.64.15l-1.16,10.82c-.08.76-.72,1.33-1.48,1.33h-1.35c-.42,0-.83-.18-1.11-.5-.28-.31-.42-.74-.37-1.16l2.47-22.05c.03-.27.22-.49.49-.55.27-.06.54.05.68.28l8.16,12.9c.13.21.44.22.58,0l8.51-12.92c.15-.23.42-.33.69-.27.27.07.46.29.48.56Z"/><path d="m117.23,19.51c0,6.69-5.45,12.14-12.14,12.14s-12.14-5.45-12.14-12.14,5.45-12.14,12.14-12.14,12.14,5.45,12.14,12.14Zm-12.14-7.82c-4.19,0-7.59,3.51-7.59,7.82s3.4,7.82,7.59,7.82,7.59-3.51,7.59-7.82-3.4-7.82-7.59-7.82Z"/><path d="m30.68,7.38h-5.85c-.34,0-.62.28-.62.62v1.77c0,.34.28.62.62.62h4.65c2.36,0,3.91.84,4.58,2.34.18.41-.12.87-.57.87h-8.66c-.34,0-.62.28-.62.62v.81c0,.34.28.62.62.62h8.69c.44,0,.74.45.57.86-.62,1.54-2.13,2.37-4.52,2.37h-4.74c-.34,0-.62.28-.62.62v2.49c0,.17.07.33.19.44l9.43,9.08c.12.11.27.17.43.17h4.12c.56,0,.83-.68.43-1.07l-8.91-8.46h.96c4.75-.13,7.18-3.06,7.8-6.03.06-.28.31-.47.6-.47h1.78c.34,0,.62-.28.62-.62v-.81c0-.34-.28-.62-.62-.62h-1.72c-.3,0-.56-.21-.61-.51-.15-.92-.44-1.73-.86-2.43-.25-.42.03-.95.52-.95h2.67c.34,0,.62-.28.62-.62v-1.08c0-.34-.28-.62-.62-.62h-10.35Z" style="fill:#C52031;"/><path d="m122.15,15.5c-2.71,0-4.92-2.21-4.92-4.92s2.21-4.92,4.92-4.92,4.92,2.21,4.92,4.92-2.21,4.92-4.92,4.92Zm0-9.22c-2.37,0-4.29,1.93-4.29,4.29s1.93,4.29,4.29,4.29,4.29-1.93,4.29-4.29-1.93-4.29-4.29-4.29Z"/><path d="m119.95,13.29c-.05,0-.1-.02-.14-.06s-.06-.09-.06-.14v-5.03c0-.06.02-.1.06-.14.04-.04.09-.06.14-.06h2.21c.7,0,1.25.16,1.66.48.4.32.6.77.6,1.34,0,.36-.08.67-.25.92s-.38.45-.65.6l1.01,1.83s.02.06.02.09c0,.05-.02.09-.05.12-.03.03-.07.05-.12.05h-1.31c-.1,0-.17-.02-.22-.07-.05-.05-.09-.09-.1-.14l-.78-1.6h-.56v1.61c0,.06-.02.1-.06.14s-.09.06-.14.06h-1.26Zm1.47-3.09h.74c.18,0,.32-.05.4-.15.09-.1.13-.23.13-.38s-.04-.29-.13-.4-.22-.16-.41-.16h-.74v1.09Z"/></svg>