<?xml version="1.0" encoding="utf-8"?>
<!-- Generator: Adobe Illustrator 27.8.1, SVG Export Plug-In . SVG Version: 6.00 Build 0)  -->
<svg version="1.1" id="Layer_1" xmlns="http://www.w3.org/2000/svg" xmlns:xlink="http://www.w3.org/1999/xlink" x="0px" y="0px"
	 viewBox="0 0 735.82 182.25" style="enable-background:new 0 0 735.82 182.25;" xml:space="preserve">
<style type="text/css">
	.st0{fill-rule:evenodd;clip-rule:evenodd;fill:#A22B3B;}
	.st1{fill-rule:evenodd;clip-rule:evenodd;fill:#F8C025;}
	.st2{fill-rule:evenodd;clip-rule:evenodd;fill:#FFFFFF;}
</style>
<g>
	<polygon class="st0" points="-0.09,0.12 735.73,0.12 735.73,182.37 -0.09,182.37 -0.09,0.12 	"/>
	<path class="st1" d="M110.78,43.37c8.34,0,16.68,0,25.03,0c0,32.45,0,64.89,0,97.33c-8.34,0-16.68,0-25.03,0
		c0-7.98,0-15.96,0-23.93c-10.75,3.93-22.34,6.69-33.82,4.89c-10.76-1.6-20.5-7.48-27.98-15.21c-4.59-4.89-7.71-11.09-9.09-17.64
		c-1.44-6.57-1.45-13.37-0.89-20.05c0.25-3.12-0.21-6.23-0.65-9.3c-0.79-4.95-1.97-9.88-3.92-14.51c7.42,0.01,14.83-0.01,22.24,0.01
		c1.78,3.06,3.07,6.42,3.65,9.92c1.55,8.7-0.31,17.6,1.21,26.3c0.91,5.32,3.71,10.35,7.98,13.69c5.64,3.81,12.6,6.03,19.43,5.07
		c12.3-1.59,22.48-13.36,21.87-25.82C110.77,63.86,110.79,53.61,110.78,43.37L110.78,43.37z M81.62,54.68
		c5.08-1.05,10.55-0.19,15,2.48c5.44,3.18,9.31,8.91,10.16,15.17c0.77,5.27-0.58,10.81-3.7,15.13c-3.54,5.01-9.35,8.35-15.48,8.8
		c-5.64,0.49-11.42-1.46-15.64-5.23c-4.32-3.79-6.99-9.4-7.1-15.15c-0.19-5.55,1.98-11.12,5.84-15.11
		C73.61,57.68,77.48,55.55,81.62,54.68L81.62,54.68z"/>
	<path class="st2" d="M164.63,52.83h45.21v6.28v24.06h-11.97V59.11H183.9c-5.88,4.99-4.08,13.97,5.85,14.98
		c1.36,0.14,2.83,0.11,4.43-0.11v5.72c-3.33,0.58-6.38,0.71-9.12,0.45c-15.07-1.43-18.76-13.22-11.68-21.04h-8.74V52.83
		L164.63,52.83z M203.27,40.67c3.3,0,5.97,2.02,5.97,4.51c0,2.49-2.67,4.51-5.97,4.51c-3.3,0-5.97-2.02-5.97-4.51
		C197.3,42.69,199.97,40.67,203.27,40.67L203.27,40.67z M648.59,40c3.3,0,5.97,2.02,5.97,4.51c0,2.49-2.67,4.51-5.97,4.51
		c-3.3,0-5.97-2.02-5.97-4.51C642.62,42.02,645.29,40,648.59,40L648.59,40z M613.09,41.98c-1.96,1.78-4.16,3.77-6.11,5.55
		c8.01-0.17,13.52,1.23,17.2,3.37h8.91C628.33,46.38,620.38,43.02,613.09,41.98L613.09,41.98z M620.84,34.5
		c-1.96,1.78-4.16,3.77-6.11,5.55c13.75,2.54,19.23,6.28,22.84,10.84h6.79C637.87,41.92,629.96,35.94,620.84,34.5L620.84,34.5z
		 M377.89,41.22c-2.36,1.87-3.97,3.57-5.99,5.57c12.36-0.15,19.97,1.36,24.18,4.1h8.69C397.09,44.64,387.37,42.52,377.89,41.22
		L377.89,41.22z M386.91,32.51c-2.36,1.87-5.01,3.96-7.37,5.83c17.75,2.86,24.07,7.17,28.42,12.44l0.78,0.11h7.44
		C408.2,40.83,398.35,34.08,386.91,32.51L386.91,32.51z M661.11,61.28c0.99,0,1.95,0.07,2.88,0.19v4.92h-0.03
		c-4.37,0-7.92,2.05-7.92,4.58c0,2.53,3.55,4.58,7.92,4.58l0.03,0v4.92c-0.93,0.13-1.89,0.19-2.88,0.19
		c-7.99,0-14.47-4.34-14.47-9.69C646.64,65.62,653.12,61.28,661.11,61.28L661.11,61.28z M685.3,61.28c-0.99,0-1.95,0.07-2.88,0.19
		v4.92h0.03c4.37,0,7.92,2.05,7.92,4.58c0,2.53-3.55,4.58-7.92,4.58l-0.03,0v4.92c0.93,0.13,1.89,0.19,2.88,0.19
		c7.99,0,14.47-4.34,14.47-9.69C699.77,65.62,693.29,61.28,685.3,61.28L685.3,61.28z M229.77,61.98h28.84v5.45h-6.38
		c2.35,2.53,3.32,5.45,2.41,8.27c-0.94,2.88-3.69,5-7.44,6.3c-6.03,2.09-14.24,2.13-20.36,0.09c-7.03-2.34-11.47-7.43-11.02-12.18
		h10.49c-0.11,0.35-0.17,0.72-0.17,1.11c0,3.54,4.42,6.7,9.06,6.7c4.65,0,8.41-2.59,8.41-5.78c0-1.82-1.22-3.44-3.13-4.5h-10.7
		V61.98L229.77,61.98z M538.81,61.16c5.27,0,9.91,1.96,12.63,4.94c1.89-1.35,4.38-2.42,7.23-3.08v6.07
		c-2.64,0.86-4.31,2.07-4.52,3.52c0,0.01,0,0.02,0,0.03h-7.11c0.02-0.18,0.04-0.36,0.04-0.54c0-2.94-3.08-5.33-6.88-5.33
		c-3.8,0-6.88,2.39-6.88,5.33c0,2.77,2.73,5.05,6.23,5.31c0.82,0.13,1.73,0.21,2.68,0.21c1.24,0,2.4-0.13,3.41-0.35v4.95
		c-2.05,0.76-4.37,1.18-6.83,1.18c-8.39,0-15.2-4.98-15.2-11.12C523.61,66.14,530.42,61.16,538.81,61.16L538.81,61.16z M449.7,87.77
		c-1.57,0.26-3.2,0.4-4.88,0.4c-8.23,0-15.36-3.36-18.83-8.26h10.94c3,1.73,7.1,2.88,11.63,3.05c0.39,0.01,0.77,0.02,1.15,0.02
		V87.77L449.7,87.77z M499.17,69.07c0.09,0.47,0.14,0.95,0.14,1.44c0,5.77-6.59,10.44-14.71,10.44c-0.04,0-0.09,0-0.13,0
		c-0.04,0-0.09,0-0.13,0c-7.98,0-14.45-4.68-14.45-10.44c0-0.84,0.18-1.64,0.49-2.39c2.21-5.26,7.64-6.18,11.18-6.18h11.46h10.08
		v4.55h-4.92h-12.95v0.02c-0.09,0-0.17,0-0.26,0c-2.83,0-5.12,1.73-5.12,3.86c0,2.13,2.29,3.86,5.12,3.86
		c2.83,0,5.12-1.73,5.12-3.86c0-0.45-0.1-0.89-0.3-1.3H499.17L499.17,69.07z M391.75,69.07c0.09,0.47,0.14,0.95,0.14,1.44
		c0,5.77-6.59,10.44-14.71,10.44c-0.04,0-0.09,0-0.13,0c-0.04,0-0.08,0-0.13,0c-7.98,0-14.46-4.68-14.46-10.44
		c0-0.84,0.18-1.64,0.49-2.39c2.21-5.26,7.64-6.18,11.18-6.18h11.46h10.08v4.55h-4.92h-12.95v0.02c-0.09,0-0.17,0-0.26,0
		c-2.83,0-5.12,1.73-5.12,3.86c0,2.13,2.29,3.86,5.12,3.86c2.83,0,5.12-1.73,5.12-3.86c0-0.45-0.1-0.89-0.3-1.3H391.75L391.75,69.07
		z M627.25,80.7c-10.73,2.98-26.29,0.49-26.29-9c0-9.5,15.57-11.98,26.29-9v5.33c-1-0.34-2.15-0.6-3.36-0.77v8.22
		c1.21-0.17,2.36-0.43,3.36-0.77V80.7L627.25,80.7z M616.57,67.27c-3.41,0.53-6.07,1.86-6.07,4.1c0,2.24,2.67,3.57,6.07,4.1V67.27
		L616.57,67.27z M641.1,52.83v6.28v24.06h-11.97V59.11h-27.96v-6.28H641.1L641.1,52.83z M326.63,80.7c-11.6,2.98-28.45,0.49-28.45-9
		c0-9.5,16.84-11.98,28.45-9v5.33c-1.08-0.34-2.33-0.6-3.64-0.77v8.22c1.31-0.17,2.55-0.43,3.64-0.77V80.7L326.63,80.7z
		 M315.07,67.27c-3.69,0.53-6.57,1.86-6.57,4.1c0,2.24,2.88,3.57,6.57,4.1V67.27L315.07,67.27z M341.8,52.83v6.28v24.06h-11.97
		V59.11h-34.11v-6.28H341.8L341.8,52.83z M645.19,52.83c18.67,0,37.35,0,56.02,0v6.28h-22.03v24.06h-11.97V59.11h-22.03V52.83
		L645.19,52.83z M573.74,52.83v6.28v24.06h-11.97V59.11h-39.54v-6.28H573.74L573.74,52.83z M518.81,52.83v6.28v24.06h-11.97V59.11
		h-37.78v-6.28H518.81L518.81,52.83z M414.49,52.83h51.36v6.28v24.06h-11.97V59.11h-6.67c3.19,2.05,5.2,5.03,5.2,8.35
		c0,2.47-1.12,4.76-3,6.61c-3.19,3.12-6.26,3.35-11.26,3.35h-2.79h-5.43h-15.43v-5.59c7.11,0,13.95-0.06,21.13-0.06
		c0.68,0,1.31-0.01,1.9-0.06c2.53-0.2,4.55-1.39,5.36-3.2c1.32-2.94-1.34-6.12-5.75-7.06c-3.75-0.8-9.01-0.87-11.04,0.74
		c-0.43,0.34-0.63,0.82-0.63,1.33c0,1.15,1.51,2.08,2.76,2.08c1.25,0,1.91-0.49,2.4-1.07c2.33-0.04,5.06,0.02,7.36-0.03
		c-0.04,6.29-13.58,6.93-18.92,4.26c-2.47-1.23-4.03-3.05-4.03-5.07c0-1.77,1.19-3.38,3.15-4.58h-3.68V52.83L414.49,52.83z
		 M410.47,52.83v6.28v24.06H398.5V59.11h-36.16v-6.28H410.47L410.47,52.83z M292.48,52.83v6.28v24.06h-11.97V59.11h-4.06v-6.28
		H292.48L292.48,52.83z M214.73,52.83h58.11v6.28v24.06h-11.97V59.11h-46.13V52.83L214.73,52.83z"/>
	<path class="st2" d="M311.33,96.13c2.2,0,4.4,0,6.6,0c0.08,8.72,0.13,17.43,0.22,26.15c0,2.69,1.79,5.3,4.5,6.56
		c2.62,1.27,6.02,1.14,8.51-0.33c2.73-1.54,4.27-4.52,3.8-7.34c-0.32-2.56-2.48-4.81-5.26-5.6c-2.42-0.77-5.12-0.38-7.35,0.66
		c0.02-2.13,0-4.26,0.01-6.4c3.11-0.83,6.5-0.95,9.62-0.11c4.61,1.17,8.53,4.33,10.11,8.32c1.41,3.43,1.16,7.33-0.58,10.63
		c-2.02,3.88-6.12,6.88-10.88,7.8c-6.87,1.42-14.6-1.71-17.74-7.27c-1.28-2.12-1.56-4.56-1.56-6.92
		C311.33,113.57,311.34,104.85,311.33,96.13L311.33,96.13z"/>
	<path class="st2" d="M578.76,96.13c2.2,0,4.4,0,6.6,0c0.08,8.72,0.13,17.43,0.23,26.15c0,2.7,1.81,5.33,4.55,6.58
		c2.64,1.26,6.05,1.1,8.53-0.39c2.7-1.56,4.2-4.52,3.72-7.32c-0.34-2.62-2.6-4.89-5.46-5.63c-2.38-0.69-4.97-0.28-7.15,0.72
		c0.02-2.13,0-4.26,0.01-6.4c3.14-0.84,6.55-0.95,9.69-0.09c4.76,1.22,8.74,4.57,10.22,8.74c1.75,4.71,0.35,10.15-3.46,13.79
		c-3.58,3.53-9.33,5.27-14.62,4.29c-6.23-0.99-11.78-5.48-12.64-11.09c-0.42-3.42-0.15-6.86-0.23-10.29
		C578.76,108.82,578.76,102.48,578.76,96.13L578.76,96.13z"/>
	<path class="st2" d="M678.67,96.3c2.54,0,5.08,0,7.62,0c-0.01,6.81,0.02,13.61-0.02,20.42c1.4-3.18,3.92-6.07,7.4-7.68
		c2.29-1.12,4.95-1.51,7.54-1.37c0,2.14,0,4.27,0,6.41c-2.82,0.62-5.5,2.02-7.08,4.21c-1.87,2.44-2.04,5.78-0.39,8.35
		c1.51,2.49,4.4,4.12,7.47,4.78c0,1.87,0,3.73,0,5.6c-2.75,0.16-5.56-0.32-7.93-1.56c-3.29-1.64-5.65-4.43-7.01-7.49
		c0.04,2.61,0.01,5.22,0.02,7.84c-2.55,0-5.09,0-7.62,0C678.66,122.65,678.66,109.47,678.67,96.3L678.67,96.3z"/>
	<path class="st2" d="M441.04,96.99c3.03-0.74,6.42,1.24,6.78,3.99c0.53,2.64-1.9,5.36-4.96,5.52c-2.93,0.3-5.79-1.81-5.98-4.38
		C436.59,99.81,438.48,97.51,441.04,96.99L441.04,96.99z"/>
	<path class="st2" d="M548.27,96.6c2.26,0,4.53,0,6.79,0c0,7.85,0.01,15.69-0.01,23.54c0.04,2.67,0.63,5.58,2.88,7.52
		c2.2,1.92,5.38,2.48,8.34,2.89c-0.01,1.91-0.02,3.83-0.02,5.75c-3.52,0.21-7.22,0.04-10.39-1.44c-2.81-1.29-4.82-3.64-5.92-6.2
		c-1.42-3.27-1.69-6.82-1.68-10.29C548.26,111.11,548.26,103.86,548.27,96.6L548.27,96.6z"/>
	<path class="st2" d="M419.19,100.74c2.49,0,4.98,0,7.47,0c0,3.05,0,6.1,0,9.14c3.04,0,6.07,0,9.1,0c0,2.1,0,4.2,0,6.31
		c-3.03,0-6.07,0-9.1,0c0.19,3.59-0.63,7.41,1.07,10.81c1.35,2.59,4.69,3.51,7.59,4.14c-0.01,1.72-0.02,3.44-0.02,5.16
		c-3.98,0.26-8.4-0.15-11.46-2.64c-3.57-2.89-4.45-7.39-4.63-11.45C419.15,115.05,419.21,107.89,419.19,100.74L419.19,100.74z"/>
	<path class="st2" d="M167.21,116.5c2.74-5.51,9.94-8.86,16.68-8.02c4.4,0.5,8.46,2.77,10.93,6c3.22,4.09,3.73,9.72,1.15,14.16
		c-2.58,4.57-8.32,7.5-14.1,7.39c-1.66,0-3.3-0.31-4.9-0.69c0-2.13,0-4.27,0-6.4c1.85,0.82,3.95,1.3,6.03,0.95
		c2.75-0.39,5.25-2.09,6.17-4.42c1.18-2.84,0.15-6.24-2.47-8.2c-2.4-1.89-6.09-2.36-9-1.13c-2.97,1.19-4.96,3.97-4.93,6.82
		c-0.09,8.69-0.15,17.38-0.23,26.08c-2.2,0-4.4,0-6.59,0c0-8.45,0-16.9,0-25.35C165.93,121.26,166.01,118.74,167.21,116.5
		L167.21,116.5z"/>
	<path class="st2" d="M234.5,112.78c4.89-4.79,14.17-5.42,19.78-1.25c2.99,2.17,4.47,5.61,4.51,8.97c0.04,5.11,0,10.22,0.02,15.33
		c-2.33,0-4.66,0-6.99,0c-0.01-4.75,0.01-9.51-0.01-14.25c0-1.61-0.6-3.28-1.97-4.4c-2.84-2.37-7.96-1.97-10.34,0.74
		c-0.92,1.03-1.31,2.35-1.31,3.64c0.01,4.76,0,9.51,0,14.27c-2.32,0-4.65,0-6.97,0c0-5.11,0-10.23,0-15.34
		C231.24,117.68,232.34,114.86,234.5,112.78L234.5,112.78z"/>
	<path class="st2" d="M357.15,112.64c4.72-4.46,13.28-5.19,18.9-1.63c2.61,1.63,4.35,4.21,4.94,6.96c0.4,1.64,0.32,3.34,0.33,5
		c0,4.28,0,8.56,0,12.85c-2.33,0-4.65,0-6.97,0c-0.01-4.64,0-9.27,0-13.91c0.03-1.65-0.44-3.39-1.8-4.59
		c-2.8-2.56-8.15-2.19-10.56,0.63c-0.89,1.02-1.28,2.32-1.27,3.6c0,4.76,0.01,9.51,0,14.27c-2.32,0-4.65,0-6.97,0
		c-0.01-5.12,0-10.24-0.01-15.35C353.74,117.62,354.9,114.74,357.15,112.64L357.15,112.64z"/>
	<path class="st2" d="M486.18,112.76c4.91-4.78,14.2-5.39,19.8-1.2c2.97,2.18,4.43,5.62,4.47,8.96c0.04,5.1,0,10.2,0.01,15.3
		c-2.33,0-4.66,0-6.98,0c0-4.64,0-9.28,0-13.91c0.04-1.7-0.49-3.5-1.94-4.7c-3.01-2.59-8.73-1.94-10.83,1.29
		c-0.85,1.23-0.91,2.72-0.86,4.11c0.02,4.4,0,8.8,0.01,13.21c-2.33,0-4.65,0-6.97,0c0-5.12,0-10.23-0.01-15.34
		C482.9,117.68,484,114.84,486.18,112.76L486.18,112.76z"/>
	<path class="st2" d="M650.91,112.64c4.92-4.66,14.05-5.23,19.61-1.14c3,2.17,4.49,5.62,4.54,8.97c0.04,5.11,0,10.23,0.01,15.35
		c-2.33,0-4.66,0-6.98,0c-0.02-4.76,0.01-9.51-0.01-14.26c0-1.62-0.61-3.3-2-4.42c-3-2.47-8.5-1.87-10.66,1.22
		c-0.77,1.05-0.99,2.32-0.96,3.55c0.02,4.63,0.01,9.27,0,13.9c-2.32,0-4.64,0-6.96,0c-0.01-5.12,0-10.23-0.01-15.35
		C647.5,117.62,648.66,114.74,650.91,112.64L650.91,112.64z"/>
	<path class="st2" d="M199.98,109.53c2.32,0,4.65,0,6.97,0c0,4.72,0,9.44,0,14.17c-0.03,1.33,0.36,2.7,1.32,3.75
		c2.36,2.7,7.45,3.09,10.3,0.76c1.42-1.14,2.02-2.86,2.01-4.51c0.01-4.73,0-9.45,0-14.17c2.33,0,4.66,0,6.98,0
		c-0.01,5.08,0.02,10.15-0.02,15.23c-0.02,3.41-1.52,6.92-4.57,9.12c-5.48,3.99-14.37,3.5-19.34-0.95c-2.76-2.4-3.88-5.92-3.65-9.26
		C199.99,118.96,199.97,114.24,199.98,109.53L199.98,109.53z"/>
	<path class="st2" d="M260.74,109.6c4.6,0,9.21,0,13.82,0c0,8.59,0.01,17.19-0.01,25.78c-0.01,3.52-1.35,7.08-4.01,9.75
		c-2.76,2.87-6.91,4.5-11.13,4.85c0-1.92,0-3.83,0-5.75c2.48-0.95,5.03-2.17,6.47-4.26c1.21-1.68,1.52-3.71,1.49-5.66
		c-0.01-6.12,0-12.25,0-18.38c-2.21,0-4.42,0-6.63,0C260.73,113.82,260.73,111.71,260.74,109.6L260.74,109.6z"/>
	<path class="st2" d="M277.75,119.26c1.9-5.15,7.44-9.11,13.56-9.73c5.24-0.6,10.97,1.19,14.04,5.07c1.86,2.32,2.71,5.18,2.72,8
		c0,4.3,0,8.59,0,12.89c-2.15,0-4.3,0-6.44,0c-0.01-4.52,0.08-9.04,0.02-13.56c-0.22-3.2-3.56-5.61-7.03-5.99
		c-3.36-0.51-7.14,0.91-8.64,3.66c-1.07,2.06-1.42,4.54-0.35,6.65c0.85,1.63,2.48,3.02,4.5,3.45c2.35,0.62,4.84,0.61,7.25,0.34
		c0,1.91,0,3.81,0,5.72c-4.03,1.08-8.61,1.05-12.3-0.9C278.9,132.01,275.55,125.11,277.75,119.26L277.75,119.26z"/>
	<path class="st2" d="M384.95,119.58c1.67-5.02,6.83-8.95,12.65-9.92c5.84-1.01,12.51,1.04,15.59,5.66
		c2.15,3.02,2.32,6.67,2.19,10.12c0,3.35,0,6.7,0,10.04c-2.15,0-4.3,0-6.45,0c0.01-4.18,0.02-8.37,0.05-12.55
		c0.07-1.46-0.33-2.95-1.35-4.12c-2.87-3.41-9.18-4.03-12.74-1.11c-1.83,1.38-2.51,3.57-2.62,5.6c-0.12,2.55,1.59,5.15,4.31,6.14
		c2.57,0.85,5.39,0.9,8.09,0.58c0,1.91,0,3.81,0,5.72c-4.09,1.1-8.73,1.04-12.45-0.97C386.27,131.96,382.99,125.31,384.95,119.58
		L384.95,119.58z"/>
	<path class="st2" d="M513.96,120.06c1.72-5.98,8.37-10.54,15.39-10.62c4.26-0.11,8.66,1.3,11.52,4.13
		c2.51,2.45,3.66,5.79,3.67,9.04c0,4.3,0,8.59,0,12.89c-2.15,0-4.3,0-6.44,0c-0.02-4.61,0.11-9.22,0-13.83
		c-0.65-4.72-7.4-7.12-12-5.14c-5.34,2.01-6.4,9.51-1.48,12.39c2.74,1.46,6.15,1.45,9.23,1.13c0,1.91,0,3.81,0,5.72
		c-4.05,1.08-8.64,1.05-12.34-0.92C515.63,132.11,512.31,125.72,513.96,120.06L513.96,120.06z"/>
	<path class="st2" d="M612.84,120.3c1.58-6,8.13-10.64,15.13-10.85c3.83-0.16,7.78,0.88,10.68,3.12c2.86,2.15,4.45,5.4,4.75,8.66
		c0.18,4.76,0.03,9.52,0.08,14.28c-2.15,0-4.3,0-6.45,0c-0.02-4.6,0.11-9.21,0-13.81c-0.63-4.72-7.38-7.14-11.99-5.16
		c-5.37,2-6.43,9.53-1.48,12.41c2.73,1.44,6.13,1.43,9.2,1.11c0,1.91,0,3.81,0,5.72c-3.95,1.06-8.42,1.06-12.07-0.79
		C614.77,132.33,611.31,125.99,612.84,120.3L612.84,120.3z"/>
	<path class="st2" d="M438.8,109.8c2.6,0,5.2,0,7.8,0c0,8.68,0,17.35,0,26.03c-2.6,0-5.2,0-7.8,0
		C438.8,127.15,438.8,118.48,438.8,109.8L438.8,109.8z"/>
	<path class="st2" d="M460.86,110.14c3.89-0.9,8.18-0.41,11.66,1.38c3.39,1.72,5.98,4.6,7.08,7.9c1.12,3.3,0.74,6.98-1.08,10.03
		c-1.8,3.07-4.96,5.5-8.69,6.62c-3.68,1.13-7.85,0.97-11.38-0.46c-3.59-1.41-6.51-4.07-7.98-7.26c-1.62-3.44-1.5-7.47,0.32-10.83
		C452.7,113.92,456.48,111.14,460.86,110.14L460.86,110.14z M462.47,116.5c-3.48,0.88-5.98,3.99-5.7,7.16
		c0.15,3.22,3.14,6.1,6.76,6.55c3.42,0.53,7.05-1.18,8.5-3.93c1.47-2.61,0.81-5.97-1.56-8C468.44,116.45,465.25,115.75,462.47,116.5
		L462.47,116.5z"/>
</g>
</svg>
