<?xml version="1.0" encoding="UTF-8"?><svg id="Layer_1" xmlns="http://www.w3.org/2000/svg" viewBox="0 0 28.61 28.61"><circle cx="14.31" cy="14.31" r="14.31" style="fill:#f82228;"/><g><path d="m14.12,8.21v.8c0,.48-.39.87-.87.87h-3c-.11,0-.2.09-.2.2v10.32c0,.48-.39.87-.87.87h-.86c-.48,0-.87-.39-.87-.87v-10.32c0-.11-.09-.2-.2-.2h-3c-.48,0-.87-.39-.87-.87v-.8c0-.48.39-.87.87-.87h9.01c.48,0,.87.39.87.87Z"/><path d="m18.95,7.34h-3.36c-.2,0-.35.16-.35.35v1.01c0,.2.16.35.35.35h2.67c1.36,0,2.25.48,2.63,1.34.1.24-.07.5-.33.5h-4.97c-.2,0-.35.16-.35.35v.46c0,.2.16.35.35.35h4.99c.25,0,.42.26.33.49-.35.89-1.22,1.36-2.6,1.36h-2.72c-.2,0-.35.16-.35.35v1.43c0,.1.04.19.11.26l5.41,5.21c.07.06.15.1.25.1h2.36c.32,0,.48-.39.24-.61l-5.11-4.85h.55c2.73-.08,4.12-1.76,4.48-3.46.03-.16.18-.27.34-.27h1.02c.2,0,.35-.16.35-.35v-.46c0-.2-.16-.35-.35-.35h-.99c-.17,0-.32-.12-.35-.29-.08-.53-.25-.99-.5-1.39-.15-.24.01-.55.3-.55h1.53c.2,0,.35-.16.35-.35v-.62c0-.2-.16-.35-.35-.35h-5.94Z" style="fill:#fff;"/></g></svg>